<?xml version="1.0" encoding="UTF-8"?> <svg xmlns="http://www.w3.org/2000/svg" width="102" height="102" viewBox="0 0 102 102" fill="none"> <circle cx="51" cy="51" r="51" fill="white"></circle> <g clip-path="url(#clip0_1081_37)"> <path d="M17.0293 43.4831L17.0463 43.4148C17.0633 43.3466 17.0633 43.2783 17.0293 43.193C16.9953 43.1248 16.9443 43.0565 16.8933 42.9882C16.8423 42.92 16.7573 42.8688 16.6893 42.8176C16.6043 42.7664 16.5363 42.7323 16.4683 42.7152L9.31207 40.3945C9.24408 40.3774 9.17608 40.3604 9.09109 40.3604C9.0061 40.3604 8.92111 40.3604 8.83612 40.3774C8.75113 40.3945 8.68314 40.4286 8.61514 40.4627C8.54715 40.4969 8.51315 40.5481 8.47916 40.6163L8.46216 40.6846L8.32617 40.6334L8.93811 38.7222L9.0741 38.7734L9.0571 38.8416C9.0401 38.9099 9.0401 38.9782 9.0741 39.0464C9.10809 39.1147 9.15909 39.1829 9.21008 39.2512C9.26108 39.3194 9.32907 39.3706 9.41406 39.4218C9.48205 39.473 9.55005 39.5071 9.61804 39.5242L12.4058 40.4286L10.315 36.2991C10.264 36.1967 10.196 36.1455 10.094 36.1114C10.009 36.0772 9.958 36.1114 9.94101 36.1796L9.80502 36.1284L10.281 34.678L10.417 34.7292C10.366 34.9169 10.366 35.0875 10.417 35.2582C10.468 35.4288 10.5529 35.6165 10.6549 35.8383L12.8137 40.0703C13.0177 39.4901 13.2897 39.0635 13.6466 38.7734C13.9866 38.4833 14.4115 38.3127 14.8875 38.2444L17.3692 37.869C17.5222 37.8519 17.6922 37.8178 17.8792 37.7666C18.0662 37.7154 18.2532 37.6471 18.4401 37.5618C18.6271 37.4765 18.7801 37.3741 18.9331 37.2376C19.0861 37.1011 19.1881 36.9475 19.2391 36.7769L19.375 36.8281L19.1541 37.5106C19.0691 37.7666 18.9671 37.9884 18.8311 38.142C18.6951 38.3127 18.5421 38.4321 18.3551 38.5345C18.1852 38.6369 17.9982 38.7051 17.7942 38.7563C17.6072 38.8075 17.4032 38.8416 17.2163 38.8758L14.7005 39.2682C14.3096 39.3365 13.9866 39.4901 13.7146 39.729C13.4426 39.9679 13.2387 40.2921 13.0857 40.7016L16.7743 41.8961C16.8423 41.9132 16.9273 41.9303 17.0123 41.9473C17.0973 41.9473 17.1823 41.9473 17.2673 41.9473C17.3522 41.9303 17.4372 41.9132 17.5052 41.8791C17.5732 41.8449 17.6242 41.7937 17.6412 41.7255L17.6752 41.6231L17.8112 41.6743L17.1483 43.5172L17.0293 43.4831Z" fill="#CB007B"></path> <path d="M11.1992 32.2207L12.1851 30.5142L12.3041 30.5825L12.2701 30.6508C12.2191 30.7361 12.2021 30.8214 12.2361 30.8726C12.2701 30.9409 12.3211 30.992 12.3721 31.0091C12.4061 31.0262 12.4571 31.0432 12.4911 31.0603C12.5251 31.0774 12.5591 31.0774 12.5761 31.0774L18.3555 31.6405L15.0068 27.1867C14.9898 27.1697 14.9728 27.1355 14.9218 27.0843C14.8708 27.0332 14.8368 26.999 14.7859 26.9649C14.6669 26.8966 14.5649 26.8966 14.4799 26.9478C14.3949 26.999 14.3269 27.0502 14.3099 27.0843L14.1909 27.0161L14.9558 25.7021L15.0748 25.7704C14.9898 25.924 14.9558 26.0605 14.9898 26.1799C15.0238 26.2994 15.0748 26.4018 15.1258 26.5042L20.4293 33.5687C20.6163 33.8076 20.7012 34.0295 20.7182 34.2684C20.7352 34.4902 20.6842 34.712 20.5823 34.8997C20.5143 35.0192 20.4293 35.1216 20.3443 35.2069C20.2593 35.2922 20.1573 35.3434 20.0723 35.3946C19.9873 35.4458 19.8683 35.4799 19.7493 35.497L19.2564 34.7974C19.4434 34.8144 19.6134 34.8144 19.7663 34.7462C19.9193 34.695 20.0213 34.6097 20.0893 34.4902C20.1233 34.4219 20.1403 34.3196 20.1403 34.2172C20.1403 34.1148 20.0893 33.9953 20.0043 33.8759L19.1204 32.7155L12.0321 32.0159C11.7262 31.9818 11.4882 32.1012 11.3352 32.3231L11.1992 32.2207Z" fill="#CB007B"></path> <path d="M23.0641 30.1217L23.1151 30.0705C23.1661 30.0194 23.2001 29.9511 23.2001 29.8658C23.2001 29.7805 23.1831 29.7122 23.1491 29.6269C23.1151 29.5416 23.0811 29.4733 23.0131 29.388C22.9621 29.3197 22.9112 29.2515 22.8432 29.2003L17.3017 24.081C17.2507 24.0298 17.1827 23.9957 17.1147 23.9616C17.0298 23.9274 16.9618 23.8933 16.8768 23.8592C16.7918 23.8421 16.7238 23.8251 16.6388 23.8421C16.5708 23.8421 16.5028 23.8762 16.4518 23.9274L16.4008 23.9786L16.2988 23.8762L21.1943 18.5352L21.2963 18.6375L21.2113 18.7229C21.1603 18.7741 21.1433 18.8252 21.1603 18.8935C21.1603 18.9618 21.1943 19.03 21.2283 19.1153C21.2623 19.2007 21.3133 19.2689 21.3643 19.3372C21.4153 19.4054 21.4663 19.4566 21.5003 19.5078L27.0417 24.6271C27.0927 24.6783 27.1607 24.7295 27.2287 24.7806C27.2967 24.8318 27.3817 24.866 27.4667 24.9001C27.5517 24.9342 27.6197 24.9513 27.7047 24.9513C27.7897 24.9513 27.8406 24.9342 27.8916 24.883L27.9766 24.7977L28.0786 24.9001L26.7358 26.3676L26.6338 26.2652L26.7188 26.1628C26.7698 26.1117 26.7868 26.0434 26.7698 25.9751C26.7698 25.9069 26.7358 25.8216 26.7188 25.7533C26.6848 25.685 26.6338 25.5997 26.5828 25.5315C26.5318 25.4632 26.4638 25.395 26.4128 25.3438L20.5994 19.9344L17.6757 23.1254L23.4891 28.5006C23.5401 28.5518 23.6081 28.603 23.6931 28.6542C23.7781 28.7054 23.8461 28.7395 23.931 28.7566C24.016 28.7907 24.084 28.7907 24.169 28.7907C24.254 28.7907 24.322 28.7566 24.373 28.7054L24.424 28.6542L24.526 28.7566L23.1831 30.2241L23.0641 30.1217Z" fill="#CB007B"></path> <path d="M33.2793 21.0779L33.3303 21.0438C33.3983 21.0096 33.4323 20.9414 33.4493 20.8731C33.4663 20.8049 33.4663 20.7196 33.4663 20.6172C33.4493 20.5318 33.4323 20.4465 33.3983 20.3612C33.3643 20.2759 33.3303 20.2076 33.2793 20.1394L29.6926 14.73L29.3017 22.6307L29.3697 22.7331C29.4037 22.8014 29.4717 22.8526 29.5397 22.9208C29.6077 22.9891 29.6756 23.0403 29.7606 23.0744C29.8286 23.1085 29.9136 23.1427 29.9816 23.1597C30.0666 23.1768 30.1346 23.1597 30.1856 23.1256L30.2366 23.0915L30.3216 23.2109L28.6558 24.3201L28.5708 24.2006L28.6218 24.1665C28.6897 24.1324 28.7237 24.0641 28.7407 23.9959C28.7577 23.9276 28.7577 23.8423 28.7577 23.7399C28.7577 23.6546 28.7237 23.5693 28.6897 23.4839C28.6558 23.3986 28.6218 23.3304 28.5708 23.2621L24.4062 16.9654C24.3722 16.9142 24.3212 16.846 24.2532 16.7948C24.1852 16.7265 24.1172 16.6924 24.0492 16.6412C23.9642 16.6071 23.8962 16.573 23.8282 16.5559C23.7603 16.5388 23.6753 16.5559 23.6243 16.6071L23.5733 16.6412L23.4883 16.5218L25.1541 15.4126L25.2391 15.532L25.1371 15.6003C25.0861 15.6515 25.0521 15.7027 25.0521 15.788C25.0351 15.8563 25.0351 15.9416 25.0521 16.0269C25.0521 16.1122 25.0861 16.1805 25.1031 16.2658C25.1371 16.3511 25.1711 16.4023 25.2051 16.4706L28.8087 21.9311L29.1997 14.0304L29.0977 13.8768C29.0637 13.8256 29.0127 13.7574 28.9447 13.7062C28.8767 13.6379 28.8087 13.6038 28.7407 13.5526C28.6558 13.5185 28.5878 13.4843 28.5198 13.4673C28.4518 13.4502 28.3668 13.4673 28.3158 13.5185L28.2648 13.5526L28.1798 13.4331L29.8456 12.324L29.9306 12.4434L29.8796 12.4776C29.8116 12.5117 29.7776 12.5799 29.7606 12.6482C29.7436 12.7165 29.7436 12.8018 29.7436 12.8871C29.7606 12.9724 29.7776 13.0577 29.7946 13.1431C29.8286 13.2284 29.8456 13.2966 29.8966 13.3478L34.0612 19.6445C34.0952 19.7128 34.1632 19.764 34.2312 19.8322C34.2992 19.8834 34.3672 19.9346 34.4522 19.9858C34.5202 20.037 34.6051 20.0711 34.6901 20.0711C34.7751 20.0882 34.8431 20.0711 34.8941 20.037L34.9451 20.0029L35.0301 20.1223L33.3643 21.2315L33.2793 21.0779Z" fill="#CB007B"></path> <path d="M39.1274 18.3306L39.1954 18.2965L39.2464 18.433L37.3765 19.1667L37.3256 19.0302L37.3935 18.9961C37.4615 18.962 37.5125 18.9108 37.5465 18.8425C37.5805 18.7743 37.5975 18.6889 37.6145 18.6036C37.6315 18.5183 37.6315 18.433 37.6145 18.3477C37.5975 18.2623 37.5805 18.177 37.5465 18.1088L34.6568 10.7541L33.127 11.3513C32.991 11.4025 32.872 11.4879 32.787 11.5902C32.702 11.6926 32.651 11.8121 32.617 11.9315C32.583 12.051 32.566 12.1704 32.583 12.2899C32.583 12.4093 32.617 12.5288 32.651 12.6312L32.515 12.6823L31.9541 11.249L37.8525 8.92822L38.4134 10.3616L38.2775 10.4128C38.2435 10.3104 38.1755 10.208 38.0905 10.1057C38.0055 10.0033 37.9205 9.93501 37.8185 9.86675C37.7165 9.7985 37.5975 9.76437 37.4615 9.7473C37.3256 9.73024 37.1896 9.7473 37.0536 9.7985L35.5067 10.4128L38.3964 17.7845C38.4304 17.8528 38.4644 17.921 38.5154 18.0064C38.5664 18.0746 38.6174 18.1429 38.6854 18.2111C38.7534 18.2623 38.8214 18.3135 38.8894 18.3477C38.9914 18.3647 39.0594 18.3647 39.1274 18.3306Z" fill="#CB007B"></path> <path d="M41.6088 17.4262L41.6768 17.4091C41.7448 17.3921 41.7958 17.358 41.8468 17.2897C41.8978 17.2214 41.9318 17.1532 41.9488 17.0679C41.9658 16.9825 41.9828 16.8972 41.9998 16.8119C41.9998 16.7266 41.9998 16.6413 41.9998 16.5901L40.5719 9.16715C40.5549 9.09889 40.5379 9.03064 40.5039 8.92825C40.4699 8.84293 40.4189 8.75761 40.368 8.68935C40.317 8.6211 40.249 8.5699 40.181 8.51871C40.113 8.46752 40.045 8.45045 39.977 8.46752L39.909 8.48458L39.875 8.34807L41.8298 7.97266L41.8638 8.10917L41.7618 8.12623C41.6428 8.17743 41.5578 8.29688 41.5068 8.48458C41.4728 8.67229 41.4558 8.84293 41.4898 8.97944L42.0678 11.9657L42.8497 11.8121C43.2747 11.7268 43.6996 11.6926 44.1246 11.6926C44.5495 11.6926 44.9405 11.778 45.2974 11.9315C45.6544 12.0851 45.9604 12.307 46.2324 12.597C46.4873 12.9042 46.6743 13.2967 46.7593 13.7915C46.8443 14.2011 46.8273 14.5765 46.7253 14.9348C46.6233 15.2932 46.4533 15.6174 46.1984 15.8904C45.9604 16.1805 45.6544 16.4194 45.2804 16.6071C44.9065 16.8119 44.4985 16.9484 44.0396 17.0337L41.6258 17.5115L41.6088 17.4262ZM43.1897 16.7607C44.2606 16.5559 44.9915 16.2147 45.3824 15.7539C45.7734 15.2932 45.9094 14.7301 45.7904 14.0816C45.6714 13.4161 45.3314 12.9383 44.7705 12.597C44.2266 12.2728 43.4956 12.1875 42.5947 12.3752L42.1358 12.4605L42.9687 16.7948L43.1897 16.7607Z" fill="#CB007B"></path> <path d="M54.7318 7.03402C55.5987 7.1364 56.3296 7.35824 56.9246 7.68246C57.5195 8.02374 58.0124 8.41622 58.3694 8.89401C58.7264 9.37181 58.9813 9.88374 59.1173 10.4469C59.2533 11.01 59.2873 11.5902 59.2193 12.1533C59.1343 12.8529 58.9303 13.5013 58.5904 14.0986C58.2504 14.6958 57.8255 15.1907 57.3155 15.6002C56.8056 16.0098 56.2276 16.3169 55.5817 16.5046C54.9358 16.6923 54.2558 16.7606 53.5419 16.6753C53.0999 16.6241 52.726 16.5388 52.42 16.4193C52.131 16.2999 51.8761 16.1975 51.6721 16.0951C51.5701 16.0439 51.4681 15.9927 51.3661 15.9586C51.2641 15.9074 51.1621 15.8903 51.0771 15.8733L51.2471 14.4399L51.3831 14.4569C51.4511 14.7812 51.5871 15.0542 51.7741 15.276C51.9611 15.4808 52.165 15.6514 52.386 15.7879C52.607 15.9074 52.845 16.0098 53.0829 16.061C53.3209 16.1122 53.5249 16.1634 53.6949 16.1804C54.2898 16.2487 54.8338 16.1975 55.3437 16.0098C55.8537 15.8221 56.3126 15.549 56.7206 15.1736C57.1285 14.7982 57.4685 14.3716 57.7235 13.8597C57.9954 13.3478 58.1654 12.8017 58.2334 12.2215L54.5958 11.7949C54.3578 11.7608 54.1708 11.812 54.0179 11.9144C53.8649 12.0168 53.7799 12.1533 53.7629 12.3239L53.6439 12.3069L53.8479 10.5492L53.9669 10.5663C53.9499 10.7369 54.0008 10.9076 54.1368 11.0612C54.2728 11.2147 54.4428 11.3001 54.6638 11.3171L58.2844 11.7437C58.2844 11.283 58.1994 10.8223 58.0634 10.3615C57.9105 9.9008 57.6895 9.4742 57.3835 9.08172C57.0775 8.68924 56.6866 8.34796 56.2276 8.07493C55.7687 7.80191 55.2077 7.63126 54.5618 7.54594C54.3408 7.52888 54.1198 7.51182 53.8989 7.51182C53.6779 7.51182 53.4569 7.54594 53.2699 7.6142C53.0659 7.68246 52.896 7.80191 52.743 7.95548C52.59 8.12613 52.471 8.34796 52.369 8.62099L52.233 8.60392L52.403 7.17053C52.522 7.1876 52.624 7.1876 52.743 7.17053C52.862 7.15347 52.981 7.1364 53.0999 7.11934C53.3039 7.08521 53.5419 7.05108 53.7969 7.03402C54.0858 6.98283 54.3918 6.99989 54.7318 7.03402Z" fill="#CB007B"></path> <path d="M59.3723 17.1361L59.4403 17.1532C59.5083 17.1702 59.5763 17.1702 59.6613 17.1361C59.7292 17.102 59.7972 17.0508 59.8652 16.9996C59.9332 16.9484 59.9842 16.8801 60.0352 16.7948C60.0862 16.7095 60.1202 16.6412 60.1372 16.573L62.6529 9.45723C62.6699 9.38897 62.6869 9.32071 62.7039 9.23539C62.7209 9.15007 62.7209 9.06475 62.7039 8.97943C62.6869 8.89411 62.6699 8.80879 62.636 8.75759C62.602 8.68934 62.551 8.63815 62.483 8.62108L62.415 8.58695L62.466 8.45044L64.3528 9.13301L64.3018 9.26952L64.2338 9.25246C64.1658 9.23539 64.0978 9.23539 64.0298 9.25246C63.9618 9.28658 63.8938 9.32071 63.8258 9.38897C63.7578 9.44016 63.7068 9.50842 63.6558 9.57668C63.6049 9.64493 63.5709 9.71319 63.5539 9.78145L62.568 12.5458L66.7495 10.5664C66.8515 10.5152 66.9195 10.4469 66.9535 10.3446C66.9875 10.2592 66.9535 10.2081 66.8855 10.191L66.9365 10.0545L68.3814 10.5664L68.3304 10.7029C68.1434 10.6517 67.9734 10.6517 67.8034 10.7029C67.6334 10.7541 67.4295 10.8224 67.2255 10.9247L62.9419 12.9724C63.5199 13.1943 63.9278 13.4844 64.1998 13.8427C64.4718 14.2011 64.6417 14.6277 64.6927 15.1055L64.9817 17.6139C64.9987 17.7675 65.0327 17.9381 65.0667 18.1429C65.1177 18.3306 65.1687 18.5183 65.2537 18.706C65.3387 18.8937 65.4407 19.0644 65.5597 19.2009C65.6786 19.3545 65.8316 19.4568 66.0186 19.5251L65.9676 19.6616L65.3047 19.4227C65.0497 19.3374 64.8457 19.2179 64.6757 19.0644C64.5228 18.9278 64.3868 18.7572 64.3018 18.5866C64.2168 18.4159 64.1488 18.2282 64.0978 18.0234C64.0468 17.8187 64.0128 17.631 63.9958 17.4433L63.6728 14.9007C63.6219 14.5082 63.4689 14.184 63.2479 13.8939C63.0099 13.6209 62.7039 13.3991 62.313 13.2284L61.0211 16.8972C60.9871 16.9655 60.9701 17.0508 60.9701 17.1361C60.9531 17.2214 60.9531 17.3068 60.9701 17.3921C60.9871 17.4774 61.0041 17.5627 61.0381 17.631C61.0721 17.6992 61.1231 17.7504 61.1741 17.7845L61.2591 17.8187L61.2081 17.9552L59.3213 17.2726L59.3723 17.1361Z" fill="#CB007B"></path> <path d="M74.5853 13.8255C75.1972 14.218 75.6902 14.6958 76.0301 15.2248C76.3871 15.7538 76.6081 16.334 76.71 16.9142C76.812 17.5114 76.812 18.1086 76.6761 18.723C76.5401 19.3373 76.3191 19.9004 75.9621 20.4294C75.5712 21.0266 75.1122 21.5044 74.5853 21.8628C74.0413 22.2211 73.4634 22.46 72.8684 22.5624C72.2565 22.6818 71.6446 22.6648 70.9986 22.5453C70.3697 22.4259 69.7578 22.1699 69.1968 21.8116C68.5849 21.4191 68.1089 20.9413 67.769 20.4123C67.429 19.8663 67.208 19.3202 67.106 18.723C67.004 18.1428 67.021 17.5455 67.14 16.9483C67.259 16.351 67.497 15.805 67.82 15.276C68.1429 14.7641 68.5679 14.3204 69.0608 13.945C69.5538 13.5696 70.1147 13.2965 70.7097 13.143C71.3046 12.9894 71.9505 12.9553 72.5965 13.0406C73.2764 13.16 73.9223 13.416 74.5853 13.8255ZM69.6218 21.5044C70.1657 21.8286 70.7097 21.9993 71.2536 22.0505C71.7976 22.0846 72.3075 22.0334 72.8004 21.8628C73.2934 21.6921 73.7184 21.4532 74.1263 21.1461C74.5173 20.8218 74.8402 20.4635 75.0952 20.071C75.3842 19.6274 75.5882 19.1496 75.7072 18.6035C75.8431 18.0575 75.8771 17.5114 75.8091 16.9483C75.7411 16.4022 75.5882 15.8732 75.3332 15.3784C75.0782 14.8835 74.6873 14.474 74.1773 14.1498C73.6844 13.8255 73.1744 13.6549 72.6475 13.6208C72.1205 13.5866 71.6106 13.6549 71.1176 13.8085C70.6247 13.9791 70.1657 14.218 69.7578 14.5422C69.3498 14.8664 69.0098 15.2419 68.7379 15.6343C68.4489 16.078 68.2619 16.5558 68.1429 17.1189C68.0239 17.665 67.9899 18.211 68.0579 18.7571C68.1259 19.3031 68.2789 19.8151 68.5339 20.2929C68.7889 20.8048 69.1458 21.1973 69.6218 21.5044Z" fill="#CB007B"></path> <path d="M77.798 28.9955L77.849 29.0467C77.9 29.0979 77.951 29.1321 78.036 29.1321C78.121 29.1321 78.189 29.1321 78.274 29.115C78.359 29.0979 78.444 29.0638 78.529 29.0126C78.6139 28.9614 78.6819 28.9102 78.7329 28.859L81.5716 26.2653L78.529 22.9036L75.6732 25.5144C75.6223 25.5656 75.5713 25.6339 75.5033 25.7022C75.4523 25.7704 75.4013 25.8557 75.3843 25.924C75.3503 26.0093 75.3333 26.0776 75.3333 26.1629C75.3333 26.2311 75.3503 26.2994 75.4013 26.3677L75.4523 26.4188L75.3503 26.5212L74.0244 25.0537L74.1264 24.9513L74.1774 25.0025C74.2284 25.0537 74.2794 25.0878 74.3644 25.0878C74.4324 25.0878 74.5174 25.0878 74.6024 25.0708C74.6874 25.0537 74.7723 25.0196 74.8573 24.9684C74.9423 24.9172 75.0103 24.866 75.0613 24.8148L80.6027 19.7126C80.6537 19.6614 80.7047 19.6102 80.7557 19.542C80.8067 19.4737 80.8407 19.3884 80.8747 19.3201C80.9087 19.2348 80.9257 19.1666 80.9257 19.0812C80.9257 19.013 80.9087 18.9447 80.8577 18.8765L80.8067 18.8253L80.9087 18.7229L82.2346 20.1904L82.1326 20.3099L82.0816 20.2587C82.0306 20.2075 81.9626 20.1734 81.8946 20.1563C81.8096 20.1563 81.7416 20.1563 81.6566 20.1904C81.5716 20.2245 81.5036 20.2587 81.4187 20.2928C81.3507 20.344 81.2827 20.3781 81.2317 20.4293L78.8689 22.5794L81.9116 25.9411L84.2744 23.791C84.3254 23.7398 84.3764 23.6886 84.4274 23.6203C84.4783 23.5521 84.5123 23.4667 84.5463 23.3985C84.5803 23.3132 84.5973 23.2449 84.5973 23.1596C84.5973 23.0913 84.5803 23.0231 84.5293 22.9548L84.4783 22.9036L84.5803 22.8012L85.9062 24.2688L85.8042 24.3711L85.7532 24.32C85.7022 24.2688 85.6342 24.2346 85.5662 24.2176C85.4812 24.2176 85.4132 24.2176 85.3283 24.2517C85.2433 24.2858 85.1753 24.32 85.0903 24.3541C85.0223 24.4053 84.9543 24.4394 84.9033 24.4906L79.3449 29.5757C79.2939 29.6269 79.2429 29.6952 79.1919 29.7634C79.1409 29.8487 79.1069 29.917 79.0729 30.0023C79.0389 30.0876 79.0219 30.1559 79.0219 30.2412C79.0219 30.3095 79.0389 30.3777 79.0729 30.4289L79.1239 30.4801L79.0219 30.5825L77.696 29.115L77.798 28.9955Z" fill="#CB007B"></path> <path d="M82.0985 35.8042L82.1325 35.8725C82.2345 36.0772 82.3875 36.1284 82.5745 36.026C82.6424 35.9919 82.7104 35.9407 82.7614 35.8725L85.1582 33.091L83.9683 30.9239L80.4157 31.487C80.3307 31.504 80.2627 31.5211 80.2117 31.5552C80.1097 31.6064 80.0417 31.6917 80.0077 31.7771C79.9737 31.8624 79.9737 31.9477 80.0247 32.016L80.0587 32.0842L79.9397 32.1525L79.1748 30.7703L79.2938 30.702L79.3278 30.7703C79.3788 30.8727 79.5148 30.9409 79.7018 30.975C79.8887 31.0092 80.0757 31.0092 80.2967 30.975L89.4078 29.644L83.4754 36.555C83.3394 36.7086 83.2204 36.8793 83.1184 37.067C83.0164 37.2547 83.0164 37.4424 83.1014 37.596L83.1354 37.6642L82.9824 37.7154L81.9795 35.8725L82.0985 35.8042ZM84.4443 30.7873L85.4982 32.6985L87.5549 30.3095L84.4443 30.7873Z" fill="#CB007B"></path> <path d="M85.8383 46.2817L84.1385 46.7254L84.1045 46.5889C84.2235 46.5548 84.3425 46.4865 84.4785 46.3841C84.6145 46.2988 84.7165 46.1793 84.8184 46.0428C84.9204 45.9063 84.9884 45.7698 85.0394 45.6333C85.0904 45.4797 85.0904 45.3261 85.0564 45.1726L83.3906 38.8588C83.3566 38.7052 83.2716 38.5687 83.1526 38.4663C83.0336 38.3639 82.8976 38.2786 82.7447 38.2104C82.5917 38.1421 82.4387 38.108 82.2857 38.0909C82.1327 38.0739 81.9797 38.0739 81.8777 38.0909L81.8438 37.9544L83.5436 37.5107L83.6966 38.108C83.7816 38.3981 84.0025 38.5687 84.3595 38.5858L93.4196 39.5584L86.0593 44.9166C85.9403 45.019 85.8383 45.1384 85.7534 45.2749C85.6684 45.4115 85.6514 45.565 85.6854 45.7016L85.8383 46.2817ZM83.9345 39.0295L85.3284 44.3023L91.4138 39.8656L83.9345 39.0295Z" fill="#CB007B"></path> <path d="M85.0736 57.4587L85.0566 57.5269C85.0396 57.5952 85.0396 57.6635 85.0906 57.7488C85.1246 57.817 85.1756 57.8853 85.2436 57.9536C85.3116 58.0218 85.3796 58.073 85.4476 58.1071C85.5326 58.1583 85.6006 58.1754 85.6855 58.2095L92.9098 60.3255C92.9778 60.3425 93.0458 60.3596 93.1308 60.3596C93.2158 60.3596 93.3008 60.3596 93.3858 60.3425C93.4707 60.3255 93.5387 60.2913 93.6067 60.2572C93.6747 60.2231 93.7087 60.1719 93.7257 60.1036L93.7427 60.0354L93.8787 60.0695L93.3178 61.9978L93.1818 61.9636L93.1988 61.8954C93.2158 61.8271 93.2158 61.7589 93.1818 61.6906C93.1478 61.6224 93.0968 61.5541 93.0458 61.4858C92.9778 61.4176 92.9098 61.3664 92.8418 61.3152C92.7738 61.264 92.7058 61.2299 92.6378 61.2128L89.8331 60.3937L92.0429 64.4721C92.0939 64.5574 92.1619 64.6256 92.2639 64.6598C92.3489 64.6768 92.3999 64.6598 92.4169 64.5915L92.5528 64.6256L92.1279 66.0932L91.9919 66.042C92.0429 65.8543 92.0259 65.6836 91.9749 65.513C91.9239 65.3423 91.8219 65.1546 91.7199 64.9499L89.4252 60.7862C89.2382 61.3664 88.9662 61.8101 88.6262 62.1001C88.2863 62.3902 87.8783 62.5779 87.4024 62.6803L84.9206 63.124C84.7676 63.1411 84.5977 63.1923 84.4107 63.2434C84.2237 63.2946 84.0367 63.38 83.8667 63.4653C83.6967 63.5506 83.5268 63.6701 83.3908 63.8066C83.2548 63.9431 83.1528 64.0967 83.1018 64.2844L82.9658 64.2502L83.1698 63.5677C83.2548 63.3117 83.3568 63.0899 83.4758 62.9192C83.6118 62.7486 83.7647 62.6121 83.9347 62.5097C84.1047 62.4073 84.2917 62.322 84.4787 62.2708C84.6656 62.2196 84.8696 62.1684 85.0396 62.1343L87.5384 61.6735C87.9293 61.6053 88.2523 61.4346 88.5073 61.1787C88.7792 60.9227 88.9662 60.5985 89.1022 60.189L85.3796 59.0968C85.3116 59.0798 85.2266 59.0627 85.1416 59.0627C85.0566 59.0627 84.9716 59.0627 84.8866 59.0798C84.8016 59.0969 84.7166 59.1139 84.6656 59.1651C84.5977 59.1992 84.5467 59.2504 84.5297 59.3187L84.5127 59.3869L84.3767 59.3528L84.9376 57.4246L85.0736 57.4587Z" fill="#CB007B"></path> <path d="M91.2269 68.5162L90.292 70.2568L90.173 70.1885L90.207 70.1203C90.258 70.0349 90.258 69.9496 90.224 69.8814C90.19 69.8131 90.139 69.779 90.088 69.7449C90.0541 69.7278 90.0031 69.7107 89.9691 69.6937C89.9351 69.6766 89.9011 69.6766 89.8841 69.6766L84.0877 69.2841L87.5723 73.6355C87.5893 73.6526 87.6063 73.6867 87.6573 73.7379C87.7083 73.7891 87.7423 73.8232 87.7933 73.8403C87.9123 73.9085 88.0143 73.9085 88.0993 73.8403C88.1842 73.7891 88.2522 73.7379 88.2692 73.6867L88.3882 73.7549L87.6743 75.0859L87.5553 75.0177C87.6403 74.8641 87.6573 74.7276 87.6233 74.6082C87.5893 74.4887 87.5383 74.3863 87.4703 74.301L81.9459 67.4412C81.7589 67.2023 81.6569 66.9805 81.6399 66.7586C81.6229 66.5368 81.6569 66.315 81.7589 66.1273C81.8269 66.0078 81.9119 65.9054 81.9969 65.8201C82.0819 65.7348 82.1839 65.6836 82.2688 65.6324C82.3538 65.5812 82.4728 65.5471 82.5918 65.5129L83.1018 66.1955C82.9148 66.1784 82.7448 66.1955 82.5918 66.2638C82.4388 66.332 82.3368 66.4173 82.2858 66.5368C82.2519 66.605 82.2349 66.7074 82.2349 66.8098C82.2519 66.9122 82.2858 67.0317 82.3708 67.1511L83.2887 68.2773L90.394 68.7722C90.7 68.7893 90.938 68.6869 91.091 68.4309L91.2269 68.5162Z" fill="#CB007B"></path> <path d="M79.4129 70.9736L79.3619 71.0247C79.3109 71.0759 79.2939 71.1442 79.2939 71.2295C79.2939 71.2978 79.3109 71.3831 79.3449 71.4684C79.3789 71.5537 79.4299 71.622 79.4809 71.7073C79.5319 71.7756 79.5998 71.8438 79.6508 71.895L85.3283 76.8436C85.3793 76.8948 85.4472 76.929 85.5152 76.9631C85.6002 76.9972 85.6682 77.0313 85.7532 77.0484C85.8382 77.0655 85.9062 77.0825 85.9912 77.0655C86.0592 77.0484 86.1272 77.0313 86.1782 76.9801L86.2292 76.929L86.3312 77.0143L81.5886 82.4919L81.4867 82.4066L81.5546 82.3212C81.6056 82.27 81.6226 82.2189 81.6056 82.1335C81.6056 82.0653 81.5716 81.997 81.5376 81.9117C81.5036 81.8264 81.4527 81.7581 81.4017 81.6899C81.3507 81.6216 81.2997 81.5704 81.2657 81.5363L75.5883 76.5877C75.5373 76.5365 75.4693 76.4853 75.4013 76.4512C75.3333 76.4 75.2483 76.3658 75.1633 76.3488C75.0783 76.3146 75.0103 76.3146 74.9253 76.3146C74.8403 76.3146 74.7893 76.3488 74.7383 76.4L74.6703 76.4853L74.5684 76.4L75.8602 74.8983L75.9622 74.9836L75.8772 75.086C75.8262 75.1372 75.8092 75.2055 75.8262 75.2737C75.8262 75.342 75.8602 75.4273 75.8942 75.4956C75.9282 75.5638 75.9792 75.6491 76.0302 75.7174C76.0812 75.7857 76.1492 75.8539 76.2002 75.888L82.1666 81.0926L84.9883 77.8334L79.0219 72.6288C78.9709 72.5776 78.9029 72.5264 78.8179 72.4923C78.7329 72.4411 78.6649 72.4069 78.5799 72.3899C78.495 72.3728 78.427 72.3558 78.342 72.3558C78.257 72.3558 78.206 72.3899 78.155 72.4581L78.104 72.5093L78.002 72.424L79.2939 70.9224L79.4129 70.9736Z" fill="#CB007B"></path> <path d="M69.486 80.3076L69.435 80.3418C69.367 80.393 69.333 80.4441 69.316 80.5124C69.299 80.5807 69.299 80.666 69.316 80.7684C69.333 80.8537 69.35 80.939 69.384 81.0243C69.418 81.1097 69.452 81.1779 69.503 81.2462L73.2426 86.5531L73.4126 78.6353L73.3446 78.533C73.2936 78.4647 73.2426 78.4135 73.1746 78.3453C73.1066 78.2941 73.0386 78.2429 72.9536 78.1917C72.8856 78.1576 72.8006 78.1234 72.7326 78.1064C72.6476 78.0893 72.5796 78.1064 72.5286 78.1575L72.4777 78.1917L72.3927 78.0722L74.0245 76.9119L74.1095 77.0313L74.0585 77.0654C73.9905 77.1166 73.9565 77.1678 73.9395 77.2361C73.9225 77.3043 73.9225 77.3897 73.9395 77.492C73.9565 77.5774 73.9735 77.6627 74.0075 77.748C74.0415 77.8333 74.0755 77.9016 74.1265 77.9698L78.478 84.13C78.512 84.1812 78.563 84.2324 78.631 84.3007C78.699 84.3518 78.767 84.403 78.852 84.4372C78.937 84.4713 79.005 84.5054 79.09 84.5054C79.158 84.5225 79.243 84.5054 79.294 84.4542L79.345 84.4201L79.4299 84.5396L77.7981 85.6999L77.7131 85.5805L77.7981 85.5122C77.8491 85.461 77.8831 85.4098 77.8831 85.3245C77.9001 85.2562 77.9001 85.1709 77.8831 85.0856C77.8661 85.0003 77.8491 84.932 77.8151 84.8467C77.7811 84.7785 77.7471 84.7102 77.7131 84.659L73.9395 79.3179L73.7695 87.2357L73.8715 87.3893C73.9055 87.4405 73.9565 87.4917 74.0245 87.5599C74.0925 87.6111 74.1605 87.6623 74.2455 87.6964C74.3305 87.7306 74.3985 87.7647 74.4834 87.7647C74.5514 87.7817 74.6364 87.7647 74.6874 87.7135L74.7384 87.6794L74.8234 87.7988L73.1916 88.9592L73.1066 88.8397L73.1576 88.8056C73.2256 88.7544 73.2596 88.7032 73.2766 88.635C73.2936 88.5667 73.2936 88.4814 73.2766 88.3961C73.2596 88.3107 73.2426 88.2254 73.2086 88.1401C73.1746 88.0548 73.1406 87.9865 73.1066 87.9353L68.755 81.7752C68.704 81.7069 68.653 81.6557 68.585 81.6045C68.5171 81.5533 68.4491 81.5021 68.3641 81.4509C68.2791 81.3997 68.2111 81.3827 68.1261 81.3656C68.0411 81.3485 67.9731 81.3656 67.9221 81.4168L67.8711 81.4509L67.7861 81.3315L69.418 80.1711L69.486 80.3076Z" fill="#CB007B"></path> <path d="M63.7069 83.2257L63.6389 83.2598L63.5879 83.1233L65.4407 82.3384L65.4917 82.4749L65.4237 82.509C65.3557 82.5431 65.3047 82.5943 65.2707 82.6626C65.2367 82.7309 65.2197 82.8162 65.2197 82.9015C65.2027 82.9868 65.2197 83.0721 65.2367 83.1745C65.2537 83.2598 65.2707 83.3452 65.3047 83.4134L68.3984 90.6828L69.9112 90.0343C70.0472 89.9831 70.1662 89.8978 70.2342 89.7954C70.3192 89.693 70.3702 89.5736 70.4042 89.4541C70.4382 89.3347 70.4382 89.2152 70.4382 89.0958C70.4212 88.9763 70.4042 88.8569 70.3532 88.7545L70.4892 88.7033L71.1011 90.1196L65.2707 92.611L64.6588 91.1947L64.7948 91.1435C64.8458 91.2459 64.8968 91.3483 64.9818 91.4336C65.0667 91.5189 65.1517 91.6042 65.2707 91.6725C65.3727 91.7407 65.4917 91.7749 65.6277 91.7919C65.7637 91.809 65.8997 91.7919 66.0356 91.7237L67.5655 91.0752L64.4718 83.8059C64.4378 83.7376 64.4038 83.6694 64.3528 83.5841C64.3018 83.5158 64.2338 83.4476 64.1658 83.3964C64.0978 83.3452 64.0298 83.294 63.9619 83.2769C63.8429 83.1916 63.7749 83.1916 63.7069 83.2257Z" fill="#CB007B"></path> <path d="M61.2589 84.1982L61.1909 84.2153C61.1229 84.2324 61.0719 84.2665 61.0209 84.3347C60.9699 84.403 60.9529 84.4713 60.9189 84.5566C60.9019 84.6419 60.8849 84.7272 60.8849 84.8125C60.8849 84.8979 60.8849 84.9832 60.9019 85.0344L62.5508 92.4061C62.5678 92.4744 62.5848 92.5426 62.6357 92.6279C62.6697 92.7133 62.7207 92.7986 62.7887 92.8498C62.8397 92.918 62.9077 92.9692 62.9757 93.0033C63.0437 93.0545 63.1117 93.0545 63.1797 93.0375L63.2477 93.0204L63.2817 93.1569L61.3439 93.6006L61.3099 93.4641L61.4119 93.447C61.5309 93.3958 61.6159 93.2764 61.6499 93.0887C61.6838 92.8839 61.6838 92.7303 61.6499 92.5938L60.9869 89.6246L60.222 89.7953C59.797 89.8977 59.3721 89.9318 58.9471 89.9489C58.5222 89.9489 58.1312 89.8806 57.7573 89.7441C57.4003 89.6076 57.0773 89.3857 56.8053 89.0957C56.5334 88.8056 56.3464 88.4131 56.2444 87.9012C56.1594 87.4916 56.1594 87.1162 56.2444 86.7579C56.3294 86.3995 56.4994 86.0753 56.7374 85.7852C56.9753 85.4951 57.2643 85.2391 57.6383 85.0344C57.9952 84.8296 58.4032 84.676 58.8621 84.5736L61.2589 84.0276V84.1982ZM59.6951 84.9149C58.6242 85.1538 57.9102 85.5122 57.5193 85.99C57.1453 86.4678 57.0263 87.0309 57.1623 87.6623C57.3153 88.3107 57.6553 88.8056 58.2162 89.1127C58.7771 89.4199 59.5081 89.4711 60.409 89.2663L60.8679 89.1639L59.899 84.8637L59.6951 84.9149Z" fill="#CB007B"></path> <path d="M48.4595 94.9656C47.5925 94.8974 46.8616 94.6926 46.2497 94.3855C45.6377 94.0783 45.1448 93.6858 44.7708 93.2251C44.3969 92.7644 44.1249 92.2524 43.9719 91.6893C43.8189 91.1262 43.7679 90.5631 43.8189 89.9829C43.8869 89.2833 44.0739 88.6178 44.3799 88.0205C44.7028 87.4233 45.1108 86.9113 45.6037 86.4847C46.0967 86.0581 46.6746 85.7339 47.3206 85.5292C47.9665 85.3073 48.6464 85.2391 49.3604 85.3073C49.8023 85.3414 50.1763 85.4268 50.4822 85.5292C50.7882 85.6315 51.0262 85.7339 51.2472 85.8363C51.3492 85.8875 51.4511 85.9216 51.5531 85.9728C51.6551 86.0069 51.7571 86.0411 51.8421 86.0411L51.7231 87.4745L51.5871 87.4574C51.5021 87.1332 51.3662 86.8602 51.1792 86.6554C50.9922 86.4506 50.7712 86.28 50.5502 86.1605C50.3123 86.0411 50.0913 85.9558 49.8363 85.9046C49.5983 85.8534 49.3944 85.8192 49.2244 85.8022C48.6294 85.751 48.0855 85.8192 47.5755 86.024C47.0656 86.2288 46.6066 86.5189 46.2157 86.8943C45.8247 87.2697 45.5018 87.7304 45.2468 88.2424C44.9918 88.7543 44.8388 89.3174 44.7878 89.8976L48.4255 90.2218C48.6634 90.2389 48.8504 90.2047 49.0034 90.0853C49.1564 89.9829 49.2414 89.8293 49.2584 89.6587L49.3774 89.6757L49.2244 91.4334L49.1054 91.4163C49.1224 91.2286 49.0544 91.075 48.9354 90.9385C48.7994 90.802 48.6294 90.7167 48.3915 90.6996L44.7538 90.3754C44.7708 90.8361 44.8558 91.2968 45.0258 91.7576C45.1958 92.2183 45.4338 92.6449 45.7397 93.0203C46.0627 93.3957 46.4537 93.72 46.9296 93.993C47.4056 94.2489 47.9665 94.4196 48.6124 94.4708C48.8334 94.4878 49.0544 94.4879 49.2754 94.4879C49.4963 94.4708 49.7003 94.4367 49.9043 94.3684C50.0913 94.3001 50.2783 94.1807 50.4313 94.0101C50.5842 93.8394 50.7032 93.6176 50.7882 93.3275L50.9242 93.3445L50.8052 94.7779C50.6862 94.7609 50.5842 94.7779 50.4652 94.7779C50.3463 94.795 50.2273 94.8121 50.1083 94.8462C49.9043 94.8803 49.6663 94.9145 49.4114 94.9486C49.1054 94.9998 48.7994 94.9998 48.4595 94.9656Z" fill="#CB007B"></path> <path d="M43.5127 85.0173L43.4447 85.0002C43.3767 84.9831 43.3087 84.9831 43.2237 85.0173C43.1557 85.0514 43.0878 85.1026 43.0198 85.1538C42.9518 85.205 42.9008 85.2732 42.8498 85.3585C42.7988 85.4439 42.7648 85.5121 42.7478 85.5804L40.436 92.7644C40.419 92.8327 40.402 92.9009 40.385 92.9862C40.385 93.0716 40.385 93.1569 40.402 93.2422C40.419 93.3275 40.453 93.3958 40.487 93.464C40.521 93.5323 40.572 93.5664 40.64 93.6005L40.708 93.6176L40.657 93.7541L38.7532 93.1398L38.8042 93.0033L38.8722 93.0204C38.9402 93.0374 39.0082 93.0374 39.0762 93.0033C39.1442 92.9692 39.2121 92.918 39.2801 92.8668C39.3481 92.8156 39.3991 92.7473 39.4501 92.662C39.5011 92.5938 39.5351 92.5255 39.5521 92.4572L40.453 89.6587L36.3394 91.8088C36.2375 91.86 36.1865 91.9283 36.1525 92.0306C36.1185 92.116 36.1525 92.1672 36.2205 92.1842L36.1695 92.3207L34.7246 91.8429L34.7756 91.7064C34.9626 91.7576 35.1326 91.7576 35.3025 91.7064C35.4725 91.6552 35.6595 91.5699 35.8805 91.4675L40.0961 89.2833C39.5181 89.0785 39.0932 88.8055 38.8042 88.4472C38.5152 88.1059 38.3452 87.6793 38.2772 87.2015L37.9033 84.7101C37.8863 84.5565 37.8523 84.3859 37.8013 84.1982C37.7503 84.0105 37.6823 83.8228 37.5973 83.6351C37.5123 83.4474 37.4103 83.2938 37.2743 83.1402C37.1384 82.9866 36.9854 82.8842 36.8154 82.833L36.8664 82.6965L37.5463 82.9184C37.8013 83.0037 38.0223 83.1061 38.1753 83.2596C38.3452 83.3962 38.4642 83.5497 38.5662 83.7204C38.6682 83.891 38.7362 84.0787 38.7872 84.2835C38.8382 84.4712 38.8722 84.676 38.9062 84.8637L39.2971 87.3892C39.3651 87.7817 39.5181 88.1059 39.7561 88.3789C39.9941 88.6519 40.317 88.8567 40.725 89.0103L41.9149 85.3074C41.9319 85.2391 41.9489 85.1538 41.9659 85.0685C41.9659 84.9831 41.9659 84.8978 41.9659 84.8125C41.9489 84.7272 41.9319 84.6419 41.8979 84.5736C41.8639 84.5053 41.8129 84.4541 41.7449 84.4371L41.6429 84.403L41.6939 84.2664L43.5977 84.8807L43.5127 85.0173Z" fill="#CB007B"></path> <path d="M28.4354 88.7715C27.8065 88.3961 27.3135 87.9353 26.9396 87.4234C26.5656 86.8944 26.3276 86.3484 26.1917 85.7511C26.0557 85.1709 26.0557 84.5566 26.1577 83.9423C26.2596 83.328 26.4806 82.7478 26.8036 82.2018C27.1606 81.5874 27.6025 81.0926 28.1295 80.7172C28.6564 80.3418 29.2173 80.0858 29.8293 79.9493C30.4412 79.8128 31.0532 79.7957 31.6991 79.8981C32.328 80.0005 32.94 80.2223 33.5349 80.5807C34.1638 80.9561 34.6568 81.3997 35.0138 81.9287C35.3707 82.4577 35.6087 83.0038 35.7447 83.584C35.8637 84.1641 35.8807 84.7443 35.7787 85.3586C35.6767 85.9559 35.4727 86.519 35.1497 87.048C34.8438 87.5599 34.4358 88.0206 33.9599 88.4131C33.4669 88.8056 32.923 89.0957 32.328 89.2834C31.7331 89.4711 31.1042 89.5223 30.4412 89.454C29.7613 89.4028 29.0984 89.181 28.4354 88.7715ZM33.11 80.939C32.549 80.6319 32.0051 80.4783 31.4611 80.4612C30.9172 80.4441 30.4072 80.5124 29.9313 80.7001C29.4553 80.8878 29.0134 81.1438 28.6394 81.468C28.2654 81.8093 27.9425 82.1676 27.7045 82.5772C27.4325 83.0208 27.2455 83.5157 27.1436 84.0788C27.0416 84.6249 27.0246 85.188 27.0926 85.734C27.1776 86.2801 27.3475 86.792 27.6365 87.2869C27.9085 87.7647 28.3164 88.1572 28.8264 88.4814C29.3363 88.7885 29.8463 88.9421 30.3732 88.9592C30.9002 88.9762 31.4101 88.8909 31.9031 88.7032C32.396 88.5155 32.838 88.2595 33.2289 87.9183C33.6369 87.577 33.9599 87.2016 34.1978 86.775C34.4698 86.3313 34.6398 85.8364 34.7418 85.2733C34.8438 84.7273 34.8438 84.1641 34.7588 83.6352C34.6738 83.0891 34.5038 82.5772 34.2318 82.1164C33.9769 81.6045 33.6029 81.2291 33.11 80.939Z" fill="#CB007B"></path> <path d="M24.746 73.6866L24.695 73.6354C24.644 73.5842 24.593 73.5672 24.508 73.5501C24.4231 73.5501 24.3551 73.5501 24.2701 73.5842C24.1851 73.6013 24.1001 73.6525 24.0151 73.7037C23.9301 73.7549 23.8791 73.8061 23.8111 73.8572L21.0404 76.5363L24.1851 79.7956L26.9558 77.1165C27.0068 77.0653 27.0578 76.9971 27.1088 76.9288C27.1598 76.8605 27.1938 76.7752 27.2278 76.6899C27.2618 76.6046 27.2788 76.5363 27.2788 76.451C27.2788 76.3827 27.2618 76.3145 27.2108 76.2462L27.1598 76.195L27.2618 76.0927L28.6386 77.526L28.5366 77.6284L28.4856 77.5772C28.4346 77.526 28.3836 77.509 28.2987 77.4919C28.2307 77.4919 28.1457 77.4919 28.0607 77.526C27.9757 77.5431 27.8907 77.5943 27.8057 77.6455C27.7207 77.6967 27.6697 77.7479 27.6017 77.7991L22.1793 83.0548C22.1283 83.106 22.0773 83.1572 22.0433 83.2255C21.9923 83.2937 21.9583 83.3791 21.9243 83.4473C21.8903 83.5326 21.8903 83.6009 21.8903 83.6862C21.8903 83.7715 21.9243 83.8227 21.9753 83.891L22.0263 83.9422L21.9243 84.0446L20.5474 82.6112L20.6494 82.5088L20.7004 82.56C20.7514 82.6112 20.8194 82.6453 20.8874 82.6453C20.9724 82.6453 21.0404 82.6453 21.1254 82.6112C21.2104 82.577 21.2784 82.5429 21.3464 82.4917C21.4144 82.4405 21.4824 82.4064 21.5333 82.3552L23.8281 80.1369L20.6834 76.8776L18.3887 79.096C18.3377 79.1471 18.2867 79.1983 18.2527 79.2666C18.2017 79.3348 18.1677 79.4202 18.1337 79.4884C18.0997 79.5737 18.0997 79.642 18.0997 79.7273C18.0997 79.8126 18.1337 79.8638 18.1847 79.9321L18.2357 79.9833L18.1337 80.0857L16.7568 78.6523L16.8588 78.5499L16.9098 78.6011C16.9608 78.6523 17.0288 78.6864 17.0968 78.6864C17.1818 78.6864 17.2498 78.6864 17.3348 78.6523C17.4198 78.6182 17.4878 78.584 17.5558 78.5328C17.6237 78.4816 17.6917 78.4475 17.7427 78.3963L23.1652 73.1406C23.2162 73.0894 23.2672 73.0211 23.3182 72.9358C23.3692 72.8505 23.4032 72.7822 23.4372 72.6969C23.4711 72.6116 23.4881 72.5433 23.4881 72.458C23.4881 72.3897 23.4711 72.3215 23.4202 72.2703L23.3692 72.2191L23.4711 72.1167L24.848 73.5501L24.746 73.6866Z" fill="#CB007B"></path> <path d="M20.2416 67.0318L20.2076 66.9635C20.0886 66.7758 19.9526 66.7246 19.7656 66.827C19.6977 66.8612 19.6467 66.9123 19.5787 66.9806L17.2669 69.8303L18.5248 71.9633L22.0604 71.2978C22.1454 71.2808 22.2134 71.2637 22.2644 71.2296C22.3664 71.1613 22.4344 71.0931 22.4684 70.9907C22.5024 70.9054 22.4854 70.82 22.4514 70.7518L22.4174 70.6835L22.5364 70.6153L23.3353 71.9633L23.2163 72.0316L23.1823 71.9633C23.1143 71.861 22.9953 71.7927 22.8083 71.7586C22.6214 71.7244 22.4344 71.7415 22.2134 71.7756L13.1533 73.3797L18.8817 66.298C19.0177 66.1445 19.1197 65.9738 19.2217 65.7861C19.3237 65.5984 19.3067 65.4107 19.2217 65.2571L19.1877 65.1889L19.3067 65.1206L20.3776 66.9294L20.2416 67.0318ZM18.0488 72.0999L16.9439 70.2228L14.9551 72.663L18.0488 72.0999Z" fill="#CB007B"></path> <path d="M16.2136 56.6567L17.9134 56.1619L17.9474 56.2984C17.8284 56.3496 17.7094 56.4178 17.5904 56.5031C17.4545 56.6055 17.3525 56.7079 17.2505 56.8444C17.1485 56.9809 17.0805 57.1175 17.0465 57.271C16.9955 57.4246 16.9955 57.5782 17.0465 57.7318L18.8823 63.9943C18.9333 64.1479 19.0183 64.2844 19.1373 64.3697C19.2563 64.4721 19.3923 64.5574 19.5452 64.6086C19.6982 64.6598 19.8512 64.711 20.0212 64.7281C20.1912 64.7451 20.3272 64.7452 20.4291 64.711L20.4631 64.8475L18.7633 65.3424L18.5933 64.7451C18.5083 64.4551 18.2874 64.3015 17.9134 64.2844L8.81934 63.5848L16.0266 58.0219C16.1456 57.9195 16.2476 57.8 16.3156 57.6464C16.4006 57.5099 16.4176 57.3564 16.3666 57.2198L16.2136 56.6567ZM18.3214 63.8407L16.7745 58.602L10.8081 63.2264L18.3214 63.8407Z" fill="#CB007B"></path> <path d="M92.5354 44.1999C92.8074 44.1316 93.0624 44.1146 93.3344 44.1658C93.5893 44.2169 93.8273 44.3023 94.0483 44.4217C94.2693 44.5582 94.4563 44.7289 94.6092 44.9336C94.7622 45.1384 94.8812 45.3773 94.9492 45.6503C95.0172 45.9234 95.0342 46.1793 94.9832 46.4353C94.9492 46.6913 94.8472 46.9301 94.7282 47.152C94.5922 47.3738 94.4222 47.5615 94.2183 47.7151C94.0143 47.8687 93.7593 47.9881 93.5043 48.0564C93.2324 48.1246 92.9774 48.1417 92.7224 48.0905C92.4675 48.0564 92.2295 47.954 92.0085 47.8346C91.7875 47.698 91.6005 47.5274 91.4476 47.3226C91.2946 47.1179 91.1756 46.879 91.1076 46.6059C91.0396 46.3329 91.0226 46.0769 91.0736 45.821C91.1076 45.565 91.2096 45.3261 91.3286 45.1043C91.4646 44.8824 91.6345 44.6947 91.8385 44.5412C92.0255 44.3705 92.2635 44.2681 92.5354 44.1999ZM92.5864 44.4388C92.3485 44.49 92.1445 44.5924 91.9575 44.7289C91.7705 44.8654 91.6175 45.036 91.4986 45.2237C91.3796 45.4114 91.2946 45.6162 91.2606 45.8551C91.2266 46.0769 91.2266 46.3158 91.2776 46.5377C91.3286 46.7766 91.4306 46.9813 91.5665 47.152C91.7025 47.3397 91.8725 47.4762 92.0595 47.5957C92.2465 47.7151 92.4675 47.7834 92.6884 47.8346C92.9094 47.8687 93.1474 47.8687 93.3854 47.8004C93.6233 47.7492 93.8273 47.6468 94.0143 47.4933C94.2013 47.3397 94.3543 47.1861 94.4732 46.9984C94.5922 46.8107 94.6772 46.5889 94.7112 46.367C94.7452 46.1452 94.7452 45.9063 94.6942 45.6845C94.6432 45.4456 94.5412 45.2408 94.4053 45.0702C94.2693 44.8824 94.0993 44.7459 93.8953 44.6265C93.7083 44.507 93.4873 44.4388 93.2664 44.3876C93.0624 44.3705 92.8244 44.3876 92.5864 44.4388ZM92.3655 46.8448C92.2975 46.9131 92.2465 46.9813 92.1785 47.0837C92.1275 47.169 92.0935 47.2544 92.1105 47.3397L92.0595 47.3568L92.0255 47.2373C91.9915 47.1008 91.9915 46.9643 92.0255 46.8619C92.0595 46.7595 92.1275 46.6401 92.2295 46.5206L92.5524 46.1793C92.6374 46.094 92.7054 46.0087 92.7734 45.9404C92.8414 45.8722 92.8754 45.838 92.8754 45.838L92.8414 45.7015L92.0595 45.8892C92.0255 45.8892 92.0085 45.9063 91.9745 45.9234C91.9405 45.9404 91.9065 45.9575 91.8895 45.9916C91.8555 46.0087 91.8385 46.0428 91.8215 46.0599C91.8045 46.094 91.8045 46.1111 91.8045 46.1452L91.7535 46.1623L91.5835 45.4797L91.6345 45.4626C91.6345 45.4968 91.6515 45.5138 91.6855 45.5309C91.7195 45.548 91.7365 45.565 91.7705 45.565C91.8045 45.5821 91.8385 45.5821 91.8725 45.5821C91.9065 45.5821 91.9405 45.5821 91.9745 45.565L93.6233 45.1555C93.6573 45.1555 93.6743 45.1384 93.7083 45.1213C93.7423 45.1043 93.7763 45.0872 93.7933 45.0702C93.8273 45.0531 93.8443 45.019 93.8613 45.0019C93.8783 44.9678 93.8783 44.9507 93.8783 44.9166L93.9293 44.8995L94.1333 45.7186C94.1673 45.8892 94.2013 46.0428 94.2013 46.1623C94.2013 46.2988 94.1843 46.4012 94.1503 46.4865C94.1163 46.5718 94.0653 46.6401 94.0143 46.7083C93.9633 46.7595 93.8953 46.7936 93.8273 46.8107C93.7423 46.8278 93.6743 46.8278 93.5893 46.8107C93.5043 46.7936 93.4364 46.7424 93.3514 46.6913C93.2834 46.6401 93.1984 46.5718 93.1474 46.4865C93.0794 46.4012 93.0284 46.2988 92.9944 46.1964L92.3655 46.8448ZM93.0454 45.6333L93.1134 45.9234C93.1474 46.0599 93.1814 46.1623 93.2324 46.2476C93.2834 46.3329 93.3344 46.3841 93.3854 46.4353C93.4364 46.4694 93.4874 46.5035 93.5553 46.5035C93.6063 46.5035 93.6743 46.5035 93.7253 46.4865C93.8273 46.4694 93.9123 46.3841 93.9633 46.2476C94.0143 46.1111 94.0313 45.9404 93.9803 45.7357L93.8953 45.4114L93.0454 45.6333Z" fill="#CB007B"></path> <path d="M9.4647 58.3462C9.19273 58.4144 8.93776 58.4315 8.66579 58.3803C8.41081 58.3291 8.17284 58.2438 7.95186 58.1243C7.73088 57.9878 7.5439 57.8172 7.39092 57.6124C7.23793 57.4077 7.11894 57.1688 7.05095 56.8957C6.98296 56.6227 6.96596 56.3667 7.01696 56.1108C7.05095 55.8548 7.15294 55.6159 7.27193 55.3941C7.40792 55.1722 7.5779 54.9845 7.78188 54.831C7.98586 54.6774 8.24083 54.5579 8.4958 54.4897C8.76778 54.4214 9.02275 54.4044 9.27772 54.4555C9.5327 54.4897 9.77067 54.5921 9.99165 54.7115C10.2126 54.848 10.3996 55.0187 10.5526 55.2234C10.7056 55.4282 10.8246 55.6671 10.8926 55.9401C10.9606 56.2132 10.9776 56.4691 10.9266 56.7251C10.8926 56.981 10.7906 57.2199 10.6716 57.4418C10.5356 57.6636 10.3656 57.8513 10.1616 58.0049C9.97465 58.1585 9.73668 58.2779 9.4647 58.3462ZM9.41371 58.1073C9.65169 58.0561 9.85566 57.9537 10.0426 57.8172C10.2296 57.6807 10.3826 57.51 10.5016 57.3223C10.6206 57.1346 10.7056 56.9299 10.7396 56.691C10.7736 56.4691 10.7736 56.2302 10.7226 56.0084C10.6716 55.7866 10.5696 55.5647 10.4336 55.3941C10.2976 55.2064 10.1276 55.0699 9.94066 54.9504C9.75368 54.831 9.5327 54.7627 9.31172 54.7115C9.09074 54.6774 8.85277 54.6774 8.61479 54.7456C8.37682 54.7968 8.17284 54.8992 7.98586 55.0528C7.79888 55.2064 7.64589 55.3599 7.5269 55.5477C7.40792 55.7354 7.32292 55.9572 7.28893 56.179C7.25493 56.4009 7.25493 56.6398 7.30593 56.8616C7.35692 57.0834 7.45891 57.3053 7.5949 57.4759C7.73088 57.6636 7.90086 57.8001 8.10484 57.9196C8.29182 58.039 8.5128 58.1073 8.73378 58.1585C8.95476 58.2097 9.17573 58.1585 9.41371 58.1073ZM9.63469 55.7012C9.70268 55.633 9.75368 55.5647 9.82167 55.4623C9.87266 55.377 9.90666 55.2917 9.88966 55.2064L9.94066 55.1893L9.97465 55.3088C10.0086 55.4453 10.0086 55.5818 9.97465 55.6842C9.94066 55.7866 9.87266 55.906 9.77067 56.0254L9.44771 56.3667C9.36272 56.4521 9.29472 56.5374 9.22673 56.6056C9.15874 56.6739 9.12474 56.708 9.12474 56.708L9.15874 56.8445L9.94066 56.6568C9.97465 56.6568 9.99165 56.6398 10.0256 56.6227C10.0596 56.6056 10.0936 56.5886 10.1106 56.5544C10.1446 56.5374 10.1616 56.5032 10.1786 56.4862C10.1956 56.4521 10.1956 56.435 10.1956 56.4009L10.2466 56.3838L10.4166 57.0664L10.3656 57.0834C10.3656 57.0493 10.3486 57.0322 10.3146 57.0152C10.2806 56.9981 10.2636 56.981 10.2296 56.981C10.1956 56.964 10.1616 56.964 10.1276 56.964C10.0936 56.964 10.0596 56.964 10.0256 56.981L8.37682 57.3906C8.34282 57.3906 8.32582 57.4077 8.29182 57.4247C8.25783 57.4418 8.22383 57.4588 8.20683 57.4759C8.17284 57.493 8.15584 57.5271 8.13884 57.5442C8.12184 57.5783 8.12184 57.5954 8.12184 57.6295L8.07085 57.6465L7.84987 56.8616C7.81587 56.691 7.78188 56.5374 7.78188 56.4179C7.78188 56.2814 7.79888 56.179 7.83287 56.0937C7.86687 56.0084 7.91786 55.9401 7.96886 55.8719C8.01985 55.8207 8.08785 55.7866 8.15584 55.7695C8.24083 55.7524 8.30882 55.7524 8.39381 55.7695C8.47881 55.7866 8.5468 55.8377 8.63179 55.8889C8.69978 55.9401 8.78477 56.0084 8.83577 56.0937C8.90376 56.179 8.95476 56.2814 8.98875 56.3838L9.63469 55.7012ZM8.95476 56.9128L8.88676 56.6227C8.85277 56.4862 8.81877 56.3838 8.76778 56.2985C8.71678 56.2132 8.66579 56.162 8.61479 56.1108C8.5638 56.0766 8.5128 56.0425 8.44481 56.0425C8.39381 56.0425 8.32582 56.0425 8.27483 56.0596C8.17284 56.0766 8.08785 56.162 8.03685 56.2985C7.98586 56.435 7.96886 56.6056 8.01985 56.8104L8.10484 57.1346L8.95476 56.9128Z" fill="#CB007B"></path> </g> <defs> <clipPath id="clip0_1081_37"> <rect width="88" height="88" fill="white" transform="translate(7 7)"></rect> </clipPath> </defs> </svg> 