<?xml version="1.0" encoding="UTF-8"?> <svg xmlns="http://www.w3.org/2000/svg" width="1250" height="698" viewBox="0 0 1250 698" fill="none"><rect width="1250" height="698" fill="#E1E5EA"></rect><rect x="540.162" y="270.351" width="157.297" height="157.297" rx="36.7027" stroke="#A0A7B1" stroke-width="10.4865"></rect><path d="M656.699 394.266C658.532 396.507 661.836 396.838 664.077 395.004C666.318 393.17 666.648 389.867 664.815 387.626L656.699 394.266ZM544.525 383.368C549.635 375.703 558.343 364.184 567.751 354.649C572.459 349.878 577.213 345.735 581.669 342.819C586.235 339.832 589.913 338.514 592.595 338.514V328.027C586.887 328.027 581.127 330.641 575.927 334.044C570.618 337.518 565.279 342.224 560.287 347.284C550.295 357.41 541.176 369.486 535.799 377.551L544.525 383.368ZM592.595 338.514C595.138 338.514 599.392 340.126 605.234 343.962C610.84 347.643 617.122 352.835 623.507 358.746C636.259 370.554 648.94 384.783 656.699 394.266L664.815 387.626C656.844 377.884 643.833 363.275 630.631 351.051C624.038 344.947 617.278 339.325 610.989 335.196C604.935 331.22 598.44 328.027 592.595 328.027V338.514Z" fill="#A0A7B1"></path><path d="M639.784 369.973C643.279 364.73 652.368 354.243 660.757 354.243C669.146 354.243 688.721 371.721 697.459 380.46" stroke="#A0A7B1" stroke-width="10.4865"></path><circle cx="645.027" cy="312.297" r="5.24324" fill="#A0A7B1"></circle></svg> 