<?xml version="1.0" encoding="UTF-8"?> <svg xmlns="http://www.w3.org/2000/svg" width="1978" height="392" viewBox="0 0 1978 392" fill="none"><rect width="1978" height="392" fill="#E1E5EA"></rect><rect x="904.162" y="117.351" width="157.297" height="157.297" rx="36.7027" stroke="#A0A7B1" stroke-width="10.4865"></rect><path d="M1020.7 241.266C1022.53 243.507 1025.84 243.838 1028.08 242.004C1030.32 240.17 1030.65 236.867 1028.81 234.626L1020.7 241.266ZM908.525 230.368C913.635 222.703 922.343 211.184 931.751 201.649C936.459 196.878 941.213 192.735 945.669 189.819C950.235 186.832 953.913 185.514 956.595 185.514V175.027C950.887 175.027 945.127 177.641 939.927 181.044C934.618 184.518 929.279 189.224 924.287 194.284C914.295 204.41 905.176 216.486 899.799 224.551L908.525 230.368ZM956.595 185.514C959.138 185.514 963.392 187.126 969.234 190.962C974.84 194.643 981.122 199.835 987.507 205.746C1000.26 217.554 1012.94 231.783 1020.7 241.266L1028.81 234.626C1020.84 224.884 1007.83 210.275 994.631 198.051C988.038 191.947 981.278 186.325 974.989 182.196C968.935 178.22 962.44 175.027 956.595 175.027V185.514Z" fill="#A0A7B1"></path><path d="M1003.78 216.973C1007.28 211.73 1016.37 201.243 1024.76 201.243C1033.15 201.243 1052.72 218.721 1061.46 227.46" stroke="#A0A7B1" stroke-width="10.4865"></path><circle cx="1009.03" cy="159.297" r="5.24324" fill="#A0A7B1"></circle></svg> 