<?xml version="1.0" encoding="UTF-8"?> <svg xmlns="http://www.w3.org/2000/svg" width="48" height="48" viewBox="0 0 48 48" fill="none"><path d="M38.6457 16.0116C38.8655 15.2694 38.6457 14.7231 37.5883 14.7231H34.0893C33.1983 14.7231 32.7884 15.1922 32.5686 15.7147C32.5686 15.7147 30.7864 20.055 28.2677 22.8694C27.4538 23.6828 27.0796 23.9441 26.634 23.9441C26.4142 23.9441 26.0756 23.6828 26.0756 22.9406V16.0116C26.0756 15.121 25.8261 14.7231 25.0895 14.7231H19.5886C19.0302 14.7231 18.6976 15.1388 18.6976 15.5247C18.6976 16.3678 19.9569 16.5638 20.0876 18.9388V24.0925C20.0876 25.2206 19.8857 25.4285 19.4401 25.4285C18.252 25.4285 15.3649 21.0703 13.6541 16.0828C13.3095 15.115 12.9709 14.7231 12.0739 14.7231H8.57498C7.57698 14.7231 7.375 15.1922 7.375 15.7147C7.375 16.641 8.5631 21.2425 12.9056 27.3225C15.7986 31.4728 19.8738 33.7231 23.5806 33.7231C25.8083 33.7231 26.0816 33.2244 26.0816 32.3635C26.0816 28.3972 25.8796 28.0231 26.9964 28.0231C27.5132 28.0231 28.4043 28.2844 30.4835 30.2853C32.8597 32.6603 33.2517 33.7231 34.5824 33.7231H38.0814C39.0794 33.7231 39.5843 33.2244 39.2932 32.2388C38.6279 30.1666 34.1309 25.9035 33.929 25.6185C33.4121 24.9535 33.5606 24.6566 33.929 24.0628C33.9349 24.0569 38.2061 18.0481 38.6457 16.0116Z" fill="white"></path></svg> 