<?xml version="1.0" encoding="UTF-8"?> <svg xmlns="http://www.w3.org/2000/svg" width="48" height="48" viewBox="0 0 48 48" fill="none"><path fill-rule="evenodd" clip-rule="evenodd" d="M32.6309 12.8873C32.9752 12.742 33.352 12.6918 33.7221 12.7421C34.0923 12.7924 34.4422 12.9414 34.7355 13.1734C35.0288 13.4055 35.2547 13.7122 35.3898 14.0616C35.5249 14.411 35.5642 14.7903 35.5035 15.1601L32.3439 34.3895C32.0375 36.2444 30.0091 37.3081 28.3137 36.3842C26.8955 35.6112 24.7891 34.4203 22.8944 33.1776C21.9471 32.5556 19.0452 30.5638 19.4019 29.1464C19.7084 27.9345 24.5843 23.3805 27.3705 20.673C28.4641 19.6093 27.9654 18.9957 26.6739 19.9741C23.4656 22.4035 18.318 26.0978 16.6156 27.1378C15.1138 28.0547 14.3309 28.2113 13.3947 28.0547C11.6868 27.7696 10.1028 27.3279 8.80998 26.7897C7.06301 26.0629 7.14799 23.6531 8.80858 22.9514L32.6309 12.8873Z" fill="white"></path></svg> 