<?xml version="1.0" encoding="UTF-8"?> <svg xmlns="http://www.w3.org/2000/svg" width="108" height="56" viewBox="0 0 108 56" fill="none"> <line x1="26.9385" y1="50.4858" x2="80.2761" y2="50.4858" stroke="#CB007B" stroke-width="0.5"></line> <line x1="26.9385" y1="53.0874" x2="80.2761" y2="53.0874" stroke="#CB007B" stroke-width="0.5"></line> <line x1="26.9385" y1="55.6895" x2="80.2761" y2="55.6895" stroke="#CB007B" stroke-width="0.5"></line> <path d="M17.7769 14.2312C17.7769 11.7026 16.9012 9.54638 15.1498 7.82141C13.3984 6.09644 11.2384 5.21436 8.68908 5.21436C6.82091 5.21436 5.1668 5.7044 3.74621 6.6845C2.32563 7.66459 1.27478 8.87991 0.613139 10.3108L0.574219 10.4089L3.27917 11.4674L3.31809 11.3694C3.78514 10.3501 4.50516 9.50717 5.4587 8.87991C6.41225 8.25265 7.50201 7.93902 8.68908 7.93902C10.207 7.93902 11.5108 8.40946 12.62 9.36996C13.6903 10.2912 14.3714 11.487 14.6633 12.9179H6.72361V15.5642H14.6633C14.3714 16.9951 13.6903 18.1908 12.62 19.1121C11.5303 20.053 10.207 20.543 8.68908 20.543C7.50201 20.543 6.41225 20.2294 5.4587 19.6021C4.50516 18.9749 3.78514 18.132 3.31809 17.1127L3.27917 17.0147L0.574219 18.0732L0.613139 18.1712C1.27478 19.6021 2.32563 20.8175 3.74621 21.7976C5.1668 22.7777 6.82091 23.2677 8.68908 23.2677C11.2384 23.2677 13.3984 22.3856 15.1498 20.6607C16.8818 18.9357 17.7769 16.7599 17.7769 14.2312Z" fill="#CB007B"></path> <path d="M22.4687 5.46875H19.5303V23.0124H22.4687V15.5637H25.3683L30.7782 22.9732L30.8171 23.0124H34.3589L27.9176 14.0348L33.8724 5.46875H30.5836L25.3683 12.9175H22.4687V5.46875Z" fill="#CB007B"></path> <path d="M55.7832 23.0124V15.5637H64.8322V23.0124H67.7512V5.46875H64.8322V12.9175H55.7832V5.46875H52.8447V23.0124H55.7832Z" fill="#CB007B"></path> <path d="M68.9385 23.013H71.9353L73.4143 18.8182H82.0546L83.5336 23.013H86.6666L80.2837 5.44971H75.3214L68.9969 22.8758L68.9385 23.013ZM81.101 16.1719H74.3873L77.7539 6.66502L81.101 16.1719Z" fill="#CB007B"></path> <path d="M103.344 25.7573H106.263V20.3668H104.356L99.2376 5.52811L99.2182 5.44971H94.3531L89.2157 20.3472H87.3086V25.7377H90.2276V22.9934H103.363V25.7573H103.344ZM96.7078 6.66502L101.261 20.3472H92.1542L96.7078 6.66502Z" fill="#CB007B"></path> <path d="M42.0033 20.8755C41.7697 16.4847 41.7697 12.0939 42.0033 7.72266C42.2368 12.0939 42.2368 16.4847 42.0033 20.8755Z" fill="#CB007B"></path> <path d="M42.8203 9.03564C44.2604 10.153 45.5447 11.4271 46.6345 12.8776C45.1944 11.7799 43.9101 10.4862 42.8203 9.03564Z" fill="#CB007B"></path> <path d="M42.9561 13.5239C44.0653 14.2884 44.9994 15.2489 45.7778 16.3662C44.6685 15.5821 43.715 14.6412 42.9561 13.5239Z" fill="#CB007B"></path> <path d="M42.8779 17.2876C43.5396 17.6012 44.0261 18.0913 44.3374 18.7577C43.6953 18.4441 43.1893 17.9541 42.8779 17.2876Z" fill="#CB007B"></path> <path d="M41.1853 9.03564C40.076 10.4862 38.8111 11.7799 37.3711 12.8776C38.4609 11.4271 39.7452 10.153 41.1853 9.03564Z" fill="#CB007B"></path> <path d="M41.0493 13.5239C40.2903 14.6412 39.3368 15.5821 38.2275 16.3662C39.0059 15.2293 39.94 14.2884 41.0493 13.5239Z" fill="#CB007B"></path> <path d="M41.1275 17.2876C40.8161 17.9541 40.3296 18.4441 39.668 18.7577C39.9793 18.1109 40.4658 17.6012 41.1275 17.2876Z" fill="#CB007B"></path> <path d="M17.7769 14.2312C17.7769 11.7026 16.9012 9.54638 15.1498 7.82141C13.3984 6.09644 11.2384 5.21436 8.68908 5.21436C6.82091 5.21436 5.1668 5.7044 3.74621 6.6845C2.32563 7.66459 1.27478 8.87991 0.613139 10.3108L0.574219 10.4089L3.27917 11.4674L3.31809 11.3694C3.78514 10.3501 4.50516 9.50717 5.4587 8.87991C6.41225 8.25265 7.50201 7.93902 8.68908 7.93902C10.207 7.93902 11.5108 8.40946 12.62 9.36996C13.6903 10.2912 14.3714 11.487 14.6633 12.9179H6.72361V15.5642H14.6633C14.3714 16.9951 13.6903 18.1908 12.62 19.1121C11.5303 20.053 10.207 20.543 8.68908 20.543C7.50201 20.543 6.41225 20.2294 5.4587 19.6021C4.50516 18.9749 3.78514 18.132 3.31809 17.1127L3.27917 17.0147L0.574219 18.0732L0.613139 18.1712C1.27478 19.6021 2.32563 20.8175 3.74621 21.7976C5.1668 22.7777 6.82091 23.2677 8.68908 23.2677C11.2384 23.2677 13.3984 22.3856 15.1498 20.6607C16.8818 18.9357 17.7769 16.7599 17.7769 14.2312Z" fill="#CB007B"></path> <path d="M22.4687 5.46875H19.5303V23.0124H22.4687V15.5637H25.3683L30.7782 22.9732L30.8171 23.0124H34.3589L27.9176 14.0348L33.8724 5.46875H30.5836L25.3683 12.9175H22.4687V5.46875Z" fill="#CB007B"></path> <path d="M55.7832 23.0124V15.5637H64.8322V23.0124H67.7512V5.46875H64.8322V12.9175H55.7832V5.46875H52.8447V23.0124H55.7832Z" fill="#CB007B"></path> <path d="M68.9385 23.013H71.9353L73.4143 18.8182H82.0546L83.5336 23.013H86.6666L80.2837 5.44971H75.3214L68.9969 22.8758L68.9385 23.013ZM81.101 16.1719H74.3873L77.7539 6.66502L81.101 16.1719Z" fill="#CB007B"></path> <path d="M103.344 25.7573H106.263V20.3668H104.356L99.2376 5.52811L99.2182 5.44971H94.3531L89.2157 20.3472H87.3086V25.7377H90.2276V22.9934H103.363V25.7573H103.344ZM96.7078 6.66502L101.261 20.3472H92.1542L96.7078 6.66502Z" fill="#CB007B"></path> <path d="M48.3088 20.5818C50.0991 18.7784 51.0332 16.6026 51.0527 14.1327C51.0527 14.1131 51.0527 14.0935 51.0527 14.0543C51.0527 11.6237 50.1575 9.48709 48.4061 7.72292C46.7325 6.03715 44.7476 5.15507 42.4902 5.07666V5.15507C42.4513 5.80193 42.4708 6.488 42.5097 7.17406V7.19367C45.6622 7.38968 47.8418 9.70271 47.8418 12.9762C47.8418 18.1511 42.4513 21.2678 42.0427 21.4834H41.9648C41.5756 21.2678 36.1657 18.1511 36.1657 12.9762C36.1657 9.72231 38.3063 7.40929 41.4394 7.19367V7.17406C41.4589 7.01725 41.4589 6.84083 41.4783 6.66441C41.5172 6.19397 41.5367 5.66472 41.6145 5.13547V5.07666C39.3377 5.19427 37.3139 6.09596 35.6208 7.80132C33.811 9.6243 32.877 11.8001 32.877 14.2699C32.877 14.2896 32.877 14.3092 32.877 14.3484C32.877 16.779 33.7721 18.9156 35.5235 20.6798C37.2944 22.4635 39.435 23.3652 41.887 23.3456C44.339 23.326 46.499 22.4047 48.3088 20.5818Z" fill="#CB007B"></path> <path d="M42.4716 5.03769C42.491 4.43003 42.5494 3.84197 42.6467 3.31272C42.8608 2.17581 43.25 0.803678 44.3786 0.196019L44.2813 0C42.5299 0.803678 41.9072 3.03829 41.6348 5.03769H42.4716Z" fill="#CB007B"></path> <path d="M102.273 6.90023C102.273 6.54739 102.332 6.21416 102.468 5.92013C102.604 5.6065 102.779 5.35168 103.013 5.11645C103.246 4.88123 103.519 4.70481 103.811 4.5676C104.122 4.43039 104.453 4.37158 104.784 4.37158C105.115 4.37158 105.465 4.43039 105.757 4.5676C106.068 4.70481 106.341 4.88123 106.555 5.11645C106.788 5.35168 106.963 5.6065 107.1 5.92013C107.236 6.23376 107.294 6.56699 107.294 6.90023C107.294 7.25306 107.236 7.58629 107.1 7.88032C106.963 8.19395 106.788 8.44878 106.555 8.684C106.321 8.91922 106.049 9.09564 105.757 9.21325C105.445 9.35046 105.115 9.40927 104.784 9.40927C104.453 9.40927 104.103 9.35046 103.811 9.21325C103.499 9.07604 103.227 8.89962 103.013 8.684C102.779 8.44878 102.604 8.19395 102.468 7.88032C102.351 7.58629 102.273 7.25306 102.273 6.90023ZM102.682 6.90023C102.682 7.19426 102.74 7.46868 102.857 7.72351C102.974 7.97833 103.11 8.21355 103.305 8.40957C103.499 8.60559 103.713 8.76241 103.986 8.88002C104.239 8.99763 104.531 9.05644 104.823 9.05644C105.115 9.05644 105.387 8.99763 105.66 8.88002C105.912 8.76241 106.146 8.60559 106.341 8.40957C106.535 8.21355 106.691 7.97833 106.788 7.72351C106.905 7.46868 106.963 7.19426 106.963 6.90023C106.963 6.6062 106.905 6.33177 106.788 6.05735C106.671 5.80252 106.535 5.5673 106.341 5.37128C106.146 5.17526 105.912 5.01844 105.66 4.92044C105.407 4.80282 105.115 4.74402 104.823 4.74402C104.531 4.74402 104.258 4.80282 103.986 4.92044C103.713 5.03805 103.499 5.17526 103.305 5.37128C103.11 5.5673 102.955 5.80252 102.857 6.05735C102.74 6.33177 102.682 6.6062 102.682 6.90023ZM103.811 5.46929H104.803C104.939 5.46929 105.076 5.48889 105.192 5.50849C105.309 5.5477 105.426 5.5869 105.523 5.64571C105.621 5.70451 105.698 5.80252 105.757 5.90053C105.815 5.99854 105.835 6.13575 105.835 6.29257C105.835 6.50819 105.776 6.665 105.66 6.80222C105.543 6.93943 105.387 7.01784 105.173 7.05704L105.932 8.31156H105.309L104.648 7.11585H104.278V8.31156H103.772V5.46929H103.811ZM104.745 6.70421C104.901 6.70421 105.037 6.68461 105.173 6.6258C105.309 6.56699 105.368 6.44938 105.368 6.29257C105.368 6.13575 105.309 6.03774 105.192 5.97894C105.076 5.92013 104.939 5.90053 104.803 5.90053H104.336V6.72381H104.745V6.70421Z" fill="#CB007B"></path> <path d="M100.943 37.9927V39.4697H100V37.0789H101.017L103.507 30.4697H104.503L106.962 37.0789H108V39.4697H107.046V37.9927H100.943ZM102.066 37.0789H105.891L103.974 31.6279L102.066 37.0789Z" fill="#CB007B"></path> <path d="M95.06 37.4697H94L97.04 30.4697H97.98L101 37.4697H99.91L99.19 35.7494H95.77L95.06 37.4697ZM96.09 34.9189H98.87L97.49 31.5375L96.09 34.9189Z" fill="#CB007B"></path> <path d="M88 30.4697H88.8786V33.4062H92.1214V30.4697H93V37.4697H92.1214V34.2564H88.8786V37.4697H88V30.4697Z" fill="#CB007B"></path> <path d="M87 33.9603C87 34.4747 86.9124 34.9482 86.7373 35.381C86.5621 35.8075 86.3181 36.1776 86.0054 36.4912C85.6926 36.7986 85.3204 37.0401 84.8887 37.2157C84.4634 37.385 84.0004 37.4697 83.5 37.4697C82.9996 37.4697 82.5335 37.385 82.1019 37.2157C81.6765 37.0401 81.3074 36.7986 80.9946 36.4912C80.6819 36.1776 80.4379 35.8075 80.2627 35.381C80.0876 34.9482 80 34.4747 80 33.9603C80 33.446 80.0876 32.9756 80.2627 32.549C80.4379 32.1225 80.6819 31.7556 80.9946 31.4482C81.3074 31.1409 81.6765 30.9025 82.1019 30.7332C82.5335 30.5575 82.9996 30.4697 83.5 30.4697C84.0004 30.4697 84.4634 30.5575 84.8887 30.7332C85.3204 30.9025 85.6926 31.1409 86.0054 31.4482C86.3181 31.7556 86.5621 32.1225 86.7373 32.549C86.9124 32.9756 87 33.446 87 33.9603ZM86.0335 33.9603C86.0335 33.5965 85.9741 33.2547 85.8552 32.9348C85.7364 32.6086 85.5675 32.3232 85.3485 32.0786C85.1296 31.834 84.8637 31.6395 84.5509 31.4953C84.2382 31.351 83.8878 31.2789 83.5 31.2789C83.1122 31.2789 82.7618 31.351 82.4491 31.4953C82.1363 31.6395 81.8704 31.834 81.6515 32.0786C81.4325 32.3232 81.2636 32.6086 81.1448 32.9348C81.0259 33.2547 80.9665 33.5965 80.9665 33.9603C80.9665 34.3304 81.0259 34.6785 81.1448 35.0047C81.2636 35.3308 81.4325 35.6162 81.6515 35.8609C81.8704 36.1055 82.1363 36.2999 82.4491 36.4442C82.7618 36.5822 83.1122 36.6512 83.5 36.6512C83.8878 36.6512 84.2382 36.5822 84.5509 36.4442C84.8637 36.2999 85.1296 36.1055 85.3485 35.8609C85.5675 35.6162 85.7364 35.3308 85.8552 35.0047C85.9741 34.6785 86.0335 34.3304 86.0335 33.9603Z" fill="#CB007B"></path> <path d="M75 35.9274H75.022L77.4022 30.4697H79V37.4697H77.9421L77.9532 31.6759H77.9201L75.3085 37.4697H74.6584L72.0578 31.6759H72.0248L72.0358 37.4697H71V30.4697H72.5868L75 35.9274Z" fill="#CB007B"></path> <path d="M64.995 36.0954L68.8342 30.4697H70V37.4697H69.0251V31.8144H69.005L65.1658 37.4697H64V30.4697H64.9749V36.0954H64.995Z" fill="#CB007B"></path> <path d="M58.0606 37.4697H57L60.0101 30.4697H60.9899L64 37.4697H62.9192L60.4848 31.7254L58.0606 37.4697Z" fill="#CB007B"></path> <path d="M49.7688 28.4697C49.8626 28.7005 50.0167 28.8917 50.2312 29.0434C50.4523 29.195 50.7069 29.2708 50.995 29.2708C51.2965 29.2708 51.5511 29.195 51.7588 29.0434C51.9732 28.8917 52.1273 28.7005 52.2211 28.4697L52.8241 28.7664C52.7705 28.9181 52.6868 29.0631 52.5729 29.2016C52.4657 29.3401 52.335 29.462 52.1809 29.5675C52.0268 29.6664 51.8492 29.7456 51.6482 29.8049C51.4472 29.8642 51.2295 29.8939 50.995 29.8939C50.7605 29.8939 50.5427 29.8642 50.3417 29.8049C50.1474 29.7456 49.9698 29.6664 49.809 29.5675C49.6549 29.462 49.5243 29.3401 49.4171 29.2016C49.3099 29.0631 49.2261 28.9181 49.1658 28.7664L49.7688 28.4697ZM52.804 30.4675H54V37.4697H53.0251V31.8126H53.005L49.1859 37.4697H48V30.4675H48.9749C48.9749 31.4104 48.9715 32.3466 48.9648 33.2763C48.9648 34.1994 48.9648 35.1324 48.9648 36.0752H48.995L52.804 30.4675Z" fill="#CB007B"></path> <path d="M41.9433 30.4697V33.248H42.9449C43.3079 33.248 43.6386 33.2974 43.9368 33.3963C44.2415 33.4886 44.5041 33.627 44.7245 33.8115C44.9449 33.9961 45.1135 34.2235 45.2301 34.4937C45.3533 34.7574 45.4149 35.0573 45.4149 35.3935C45.4149 35.7296 45.3533 36.0262 45.2301 36.2833C45.107 36.5403 44.9352 36.7579 44.7147 36.9358C44.4943 37.1138 44.2318 37.2489 43.9271 37.3412C43.6224 37.4269 43.2885 37.4697 42.9254 37.4697H41V30.4697H41.9433ZM41.9433 36.6392H42.9352C43.4473 36.6392 43.8298 36.5371 44.0827 36.3327C44.3355 36.1218 44.4619 35.7922 44.4619 35.344C44.4619 34.9617 44.3323 34.6552 44.0729 34.4245C43.8201 34.1938 43.4408 34.0785 42.9352 34.0785H41.9433V36.6392ZM47 30.4697V37.4697H46.0567V30.4697H47Z" fill="#CB007B"></path> <path d="M34 30.4697H35.0543V33.4062H38.9457V30.4697H40V37.4697H38.9457V34.2564H35.0543V37.4697H34V30.4697Z" fill="#CB007B"></path> <path d="M29.5527 33.4711H30.0508C30.2721 33.4711 30.4805 33.4491 30.6758 33.4052C30.8776 33.3613 31.0501 33.2954 31.1934 33.2076C31.3431 33.1135 31.4603 32.9975 31.5449 32.8595C31.6296 32.7152 31.6719 32.5459 31.6719 32.3514C31.6719 31.9939 31.5482 31.7211 31.3008 31.5329C31.0599 31.3385 30.7409 31.2412 30.3437 31.2412C30.0312 31.2412 29.7611 31.3196 29.5332 31.4764C29.3118 31.627 29.1426 31.834 29.0254 32.0974L28.2441 31.6834C28.446 31.2883 28.7324 30.9872 29.1035 30.7802C29.4746 30.5732 29.9141 30.4697 30.4219 30.4697C30.7409 30.4697 31.0371 30.5105 31.3105 30.592C31.584 30.6673 31.8216 30.7802 32.0234 30.9307C32.2253 31.0813 32.3815 31.2695 32.4922 31.4953C32.6029 31.7211 32.6582 31.9814 32.6582 32.2762C32.6582 32.4769 32.6159 32.6619 32.5312 32.8313C32.4466 33.0006 32.3392 33.148 32.209 33.2735C32.0788 33.3989 31.929 33.5056 31.7598 33.5934C31.597 33.6812 31.4342 33.7439 31.2715 33.7816V33.8004C31.4603 33.8192 31.6556 33.8631 31.8574 33.9321C32.0592 33.9948 32.2448 34.092 32.4141 34.2238C32.5833 34.3492 32.7233 34.5123 32.834 34.713C32.9447 34.9075 33 35.1489 33 35.4375C33 35.7511 32.9316 36.0333 32.7949 36.2842C32.6647 36.5351 32.4824 36.7484 32.248 36.924C32.0137 37.0997 31.737 37.2345 31.418 37.3286C31.1055 37.4227 30.7702 37.4697 30.4121 37.4697C30.0866 37.4697 29.7936 37.4321 29.5332 37.3568C29.2793 37.2878 29.0547 37.1875 28.8594 37.0557C28.6641 36.924 28.4948 36.7672 28.3516 36.5853C28.2148 36.4034 28.0977 36.2027 28 35.9832L28.8301 35.6068C28.9733 35.9455 29.1686 36.2121 29.416 36.4066C29.6699 36.601 30.0215 36.6982 30.4707 36.6982C30.972 36.6982 31.3594 36.5822 31.6328 36.3501C31.9062 36.118 32.043 35.8138 32.043 35.4375C32.043 35.2054 31.9941 35.0109 31.8965 34.8541C31.7988 34.6973 31.6589 34.5687 31.4766 34.4684C31.3008 34.368 31.0892 34.2959 30.8418 34.252C30.5944 34.2081 30.321 34.1861 30.0215 34.1861H29.5527V33.4711Z" fill="#CB007B"></path> <path d="M24.0281 36.6293H28V37.4697H23V30.4697H27.8485V31.3101H24.0281V33.4358H27.6104V34.2466H24.0281V36.6293Z" fill="#CB007B"></path> <path d="M17.0606 37.4697H16L19.0101 30.4697H19.9899L23 37.4697H21.9192L19.4848 31.7254L17.0606 37.4697Z" fill="#CB007B"></path> <path d="M16 33.9603C16 34.4747 15.8999 34.9482 15.6997 35.381C15.4996 35.8075 15.2207 36.1776 14.8633 36.4912C14.5058 36.7986 14.0804 37.0401 13.5871 37.2157C13.101 37.385 12.5719 37.4697 12 37.4697C11.4281 37.4697 10.8954 37.385 10.4021 37.2157C9.916 37.0401 9.49419 36.7986 9.13673 36.4912C8.77927 36.1776 8.50045 35.8075 8.30027 35.381C8.10009 34.9482 8 34.4747 8 33.9603C8 33.446 8.10009 32.9756 8.30027 32.549C8.50045 32.1225 8.77927 31.7556 9.13673 31.4482C9.49419 31.1409 9.916 30.9025 10.4021 30.7332C10.8954 30.5575 11.4281 30.4697 12 30.4697C12.5719 30.4697 13.101 30.5575 13.5871 30.7332C14.0804 30.9025 14.5058 31.1409 14.8633 31.4482C15.2207 31.7556 15.4996 32.1225 15.6997 32.549C15.8999 32.9756 16 33.446 16 33.9603ZM14.8954 33.9603C14.8954 33.5965 14.8275 33.2547 14.6917 32.9348C14.5559 32.6086 14.3628 32.3232 14.1126 32.0786C13.8624 31.834 13.5585 31.6395 13.2011 31.4953C12.8436 31.351 12.4433 31.2789 12 31.2789C11.5567 31.2789 11.1564 31.351 10.7989 31.4953C10.4415 31.6395 10.1376 31.834 9.8874 32.0786C9.63718 32.3232 9.44415 32.6086 9.30831 32.9348C9.17248 33.2547 9.10456 33.5965 9.10456 33.9603C9.10456 34.3304 9.17248 34.6785 9.30831 35.0047C9.44415 35.3308 9.63718 35.6162 9.8874 35.8609C10.1376 36.1055 10.4415 36.2999 10.7989 36.4442C11.1564 36.5822 11.5567 36.6512 12 36.6512C12.4433 36.6512 12.8436 36.5822 13.2011 36.4442C13.5585 36.2999 13.8624 36.1055 14.1126 35.8609C14.3628 35.6162 14.5559 35.3308 14.6917 35.0047C14.8275 34.6785 14.8954 34.3304 14.8954 33.9603Z" fill="#CB007B"></path> <path d="M7 30.4697V37.4697H6.09006V31.32H2.90994V37.4697H2V30.4697H7Z" fill="#CB007B"></path> </svg> 