<?xml version="1.0" encoding="UTF-8"?> <svg xmlns="http://www.w3.org/2000/svg" width="456" height="394" viewBox="0 0 456 394" fill="none"> <path d="M2.82492 221.009C6.38886 230.504 17.0807 242.769 27.3765 240.395C35.2963 238.417 40.4442 228.922 39.6523 221.009C38.0683 205.184 10.3488 195.689 2.82492 201.623C-3.11498 206.371 2.03293 219.822 2.82492 221.009Z" fill="#FFDF88"></path> <path d="M315.659 94.8031C309.719 99.155 315.263 113.002 315.659 114.189C319.223 123.684 329.915 135.949 340.21 133.575C348.13 131.597 353.278 122.102 352.486 114.189C350.506 98.3637 323.183 88.8686 315.659 94.8031Z" fill="#FFDF88"></path> <path d="M68.1659 124.08C76.8777 121.31 88.3615 113.793 88.7575 104.694C89.1535 90.0556 61.434 72.2522 43.6143 81.3517C33.3185 86.4949 26.1906 101.133 31.3385 112.606C37.2784 125.662 56.2861 127.64 68.1659 124.08Z" fill="#FFDF88"></path> <path d="M106.974 283.123C96.6779 288.267 89.55 302.905 94.6979 314.378C100.638 327.434 119.249 329.808 131.525 325.851C140.237 323.082 151.721 315.565 152.117 306.466C152.513 291.827 124.793 274.024 106.974 283.123Z" fill="#FFDF88"></path> <path d="M156.075 171.556C162.015 172.743 176.271 174.325 180.626 167.599C188.546 155.335 160.035 117.354 143.799 120.915C134.691 122.893 127.167 138.718 131.523 152.17C136.275 166.808 152.907 170.764 156.075 171.556Z" fill="#FFDF88"></path> <path d="M175.479 112.211C189.339 116.167 209.139 112.606 217.455 96.7813C227.354 78.1867 216.267 51.2839 198.843 40.6018C179.043 28.7329 150.532 36.2499 142.612 56.0314C134.692 76.9998 152.908 105.881 175.479 112.211Z" fill="#FFDF88"></path> <path d="M210.327 135.157C202.011 156.126 220.623 185.402 243.194 191.337C257.054 195.293 276.854 191.732 285.169 175.907C295.069 157.313 283.981 130.41 266.558 119.728C246.362 107.463 217.851 115.376 210.327 135.157Z" fill="#FFDF88"></path> <path d="M263.785 71.0656C280.813 84.1214 308.929 77.3957 322.392 61.9662C337.44 44.5584 334.668 14.8862 316.452 4.20416C297.049 -7.26911 265.369 6.18232 255.469 27.1507C249.134 39.8109 249.53 59.988 263.785 71.0656Z" fill="#FFDF88"></path> <path d="M235.273 267.298C250.321 249.89 247.549 220.218 229.333 209.536C209.93 198.063 178.25 211.514 168.35 232.482C162.41 245.538 162.41 265.715 176.666 276.397C193.298 289.453 221.809 283.123 235.273 267.298Z" fill="#FFDF88"></path> <path d="M65.3933 205.184C59.4534 218.24 59.4534 238.417 73.7091 249.099C90.7368 262.155 118.852 255.429 132.316 239.999C147.364 222.592 144.592 192.919 126.376 182.237C106.577 170.368 75.2931 183.82 65.3933 205.184Z" fill="#FFDF88"></path> <path d="M327.145 248.307C327.541 231.295 333.481 222.196 331.105 196.876C330.313 186.194 328.333 167.995 319.225 165.225C315.265 164.038 310.117 166.016 307.345 169.181C301.801 175.907 308.137 185.402 311.305 200.832C316.057 224.174 307.345 226.943 311.305 256.22C312.493 265.32 314.077 271.65 316.849 280.749C308.137 272.837 302.593 265.32 299.821 255.824C294.277 237.625 299.029 218.635 287.941 213.096C280.813 209.14 271.31 213.096 264.578 216.657C270.122 236.834 275.666 256.616 281.605 276.793C289.525 286.288 300.613 298.157 315.265 311.213C310.513 310.817 304.969 310.421 298.237 309.234C269.33 305.674 262.994 302.509 237.65 300.926C216.267 299.739 200.427 298.948 198.051 304.487C196.071 309.63 205.575 320.708 213.891 320.312C218.642 319.916 220.226 315.96 226.562 314.378C234.086 312.399 240.422 315.96 243.59 317.543C261.806 326.247 275.27 318.73 314.869 329.016C333.085 333.764 338.232 337.324 350.112 338.907C352.092 340.489 354.072 341.676 356.448 343.654C371.892 353.941 394.067 365.81 439.211 389.547C441.983 391.13 449.11 394.691 452.674 392.317C455.842 389.943 455.05 383.613 454.654 381.635C451.486 362.249 400.799 340.094 352.488 307.256C348.528 304.487 345.36 302.113 341.796 299.739C334.272 286.684 326.749 269.276 327.145 248.307Z" fill="#FFDF88"></path> </svg> 