<?xml version="1.0" encoding="UTF-8"?> <svg xmlns="http://www.w3.org/2000/svg" width="615" height="532" viewBox="0 0 615 532" fill="none"> <path d="M419.898 369.486C429.962 404.509 440.985 436.653 447.694 470.237C452.008 491.346 452.966 514.855 429.483 527.329C414.147 535.485 393.539 524.93 379.64 496.144C363.825 462.56 353.281 427.058 342.258 397.312C334.59 421.3 325.964 451.046 315.42 479.832C310.628 492.306 303.439 505.259 293.854 513.895C284.748 521.571 268.453 529.727 259.347 526.849C249.762 523.491 240.177 507.658 239.219 496.144C237.301 478.393 240.177 459.202 244.97 441.93C251.679 416.503 262.223 392.514 272.287 366.127C267.974 369.486 264.14 372.364 260.785 375.243C231.55 403.069 200.878 428.977 160.141 437.133C148.16 439.531 129.948 435.214 122.76 426.578C117.008 419.381 118.446 397.792 125.635 390.595C149.598 365.648 176.915 343.578 203.274 321.029C209.984 315.272 219.09 311.434 226.758 307.116C196.086 307.116 165.892 308.076 135.699 306.636C123.239 306.157 109.34 304.238 98.7968 298.001C86.8154 290.324 71 277.371 71 266.816C71 256.261 86.8154 238.51 97.8383 237.07C134.262 231.313 171.644 230.833 209.025 228.914C213.818 228.435 218.131 230.354 224.841 227.475C220.528 224.596 215.256 222.198 211.422 218.839C183.146 195.81 153.432 174.221 128.031 148.793C119.884 140.637 117.488 119.528 122.28 108.013C129.469 90.262 151.036 91.7013 164.455 98.418C195.127 114.25 223.882 134.4 253.117 153.111C259.347 156.949 264.14 163.186 268.453 167.504C258.868 133.921 248.804 99.8573 238.739 66.2737C238.26 64.8344 237.781 62.9154 237.781 61.4761C236.822 40.3664 233.947 16.3781 257.909 7.26253C282.351 -1.85302 297.688 18.2971 305.835 37.008C321.65 71.5511 333.152 108.013 344.655 138.718C350.406 118.568 357.115 91.7013 366.221 65.794C371.972 50.4415 380.119 34.6092 391.142 22.615C399.769 13.4995 417.501 4.38394 427.086 7.7423C436.672 11.1007 448.174 29.3318 447.694 40.3664C445.777 68.6726 439.068 96.499 431.879 124.325C428.045 138.718 420.377 152.152 412.23 170.383C432.358 153.591 447.215 137.759 465.427 126.724C486.993 113.771 510.477 101.776 534.44 96.0192C563.674 89.3025 578.052 111.851 564.153 138.718C545.942 174.701 513.352 195.331 480.284 215.001C473.574 218.839 466.865 222.677 461.593 225.076C484.597 225.076 508.56 223.637 532.043 225.556C551.693 226.995 572.301 229.394 590.033 236.591C601.056 241.388 613.996 255.301 614.954 266.336C615.913 275.452 601.535 292.723 591.95 294.162C553.131 299.92 513.352 301.359 474.053 304.238C469.74 304.717 465.427 303.278 456.321 301.839C480.763 318.151 502.33 330.145 521.02 345.497C536.836 358.451 551.214 374.283 561.757 391.555C567.508 400.191 568.467 419.381 562.716 426.098C555.527 434.254 536.836 440.011 527.73 436.173C497.537 422.74 469.261 404.988 440.985 387.717C433.796 383.879 427.566 376.202 419.898 369.486ZM381.078 267.296C381.078 246.186 364.304 229.394 343.217 229.394C322.13 229.394 305.835 246.666 306.314 268.255C306.793 288.885 322.13 304.238 343.217 304.717C364.304 304.717 381.078 288.405 381.078 267.296Z" fill="#AEE8BA"></path> </svg> 