<?xml version="1.0" encoding="UTF-8"?> <svg xmlns="http://www.w3.org/2000/svg" width="456" height="394" viewBox="0 0 456 394" fill="none"> <g clip-path="url(#clip0_1237_3)"> <path d="M104.064 59.5053C103.604 77.0262 91.747 89.3294 84.9251 97.486C57.2728 130.574 36.9513 186.278 37.5866 226.328C38.5172 286.016 86.3457 328.185 100.668 340.841C116.884 355.106 157.858 391.258 208.226 383.809C213.335 383.065 251.587 376.012 264.903 349.904C287.445 305.706 259.144 270.243 259.825 268.958C271.287 278.609 273.092 278.464 279.912 282.574C340.318 318.578 336.848 332.526 349.815 334.969C351.793 332.712 356.137 330.984 358.063 328.779C352.918 327.822 321.668 299.661 269.964 264.686C269.964 264.686 275.523 265.542 288.722 271.027C295.757 274.004 325.748 286.645 346.949 278.62C383.042 264.907 393.468 191.16 377.079 137.106C373.47 125.232 360.571 84.8043 321.881 58.7663C291.134 38.0814 247.559 28.818 208.378 35.9688C179.418 41.3214 156.675 54.8521 136.983 43.3C130.88 39.7096 123.019 30.9038 114.552 20.5485C86.3964 -13.8315 104.68 35.6974 104.064 59.5053Z" fill="#FBEBF4"></path> </g> <defs> <clipPath id="clip0_1237_3"> <rect width="456" height="394" fill="white"></rect> </clipPath> </defs> </svg> 