<?xml version="1.0" encoding="UTF-8"?> <svg xmlns="http://www.w3.org/2000/svg" width="615" height="532" viewBox="0 0 615 532" fill="none"> <g clip-path="url(#clip0_1091_7)"> <path d="M558.663 166.527C582.075 136.488 592.715 104.98 564.798 71.4453C529.265 29.2089 487.032 34.3792 444.471 56.5892C411.026 2.75021 380.514 -9.54329 335.095 10.8107C287.473 31.9585 270.059 71.1833 284.024 127.864C234.134 153.214 213.754 186.142 221.575 227.717C229.779 272.838 259.641 288.849 300.263 290.531L285.414 313.402L285.212 317.258C281.075 311.582 276.938 305.906 272.527 301.126C269.632 297.789 266.015 295.211 261.676 293.391C252.413 290.061 241.568 288.695 233.164 284.159C202.371 266.393 171.185 269.074 138.801 277.264C139.536 289.242 139.96 300.636 140.522 311.582C142.439 335.676 143.772 360.08 147.17 384.139C148.382 391.366 153.175 399.692 159.066 404.437C175.087 417.674 187.12 437.524 210.016 441.116C211.359 441.528 212.427 442.834 213.633 443.694C222.831 450.432 232.297 449.906 241.518 445.388L200.656 513.172L227.067 521.27L277.357 414.751L295.202 393.288C296.646 391.772 298.09 390.256 299.224 388.155L304.417 382.401L305.666 324.019L316.391 308.208C325.996 343.964 350.045 364.56 389.121 369.685C439.938 376.451 470.167 346.542 492.331 307.795C550.663 325.19 586.42 315.586 604.765 278.116C625.688 237.029 614.507 209.605 558.663 166.527ZM174.668 308.829C174.805 308.381 174.942 307.934 175.079 307.486C177.628 308.757 180.762 309.718 183.173 311.437C211.113 333.715 234.685 359.062 256.263 387.715C258.4 390.329 257.923 395.08 258.752 398.762C257.857 398.488 256.825 398.661 256.377 398.524C228.842 368.534 201.755 338.681 174.668 308.829ZM460.78 185.487C452.163 208.8 423.156 221.943 403.662 212.049C382.515 201.157 379.141 165.843 394.646 145.621C403.687 133.702 421.819 124.08 438.692 129.744C459.147 136.505 468.711 164.412 460.78 185.487Z" fill="#929EDD"></path> </g> <defs> <clipPath id="clip0_1091_7"> <rect width="615" height="532" fill="white"></rect> </clipPath> </defs> </svg> 